<mxfile host="Electron" agent="Mozilla/5.0 (Windows NT 10.0; Win64; x64) AppleWebKit/537.36 (KHTML, like Gecko) draw.io/27.0.9 Chrome/134.0.6998.205 Electron/35.4.0 Safari/537.36" version="27.0.9">
  <diagram name="PÃ¡gina-1" id="YSvxo-h45S3XsWEgPBtb">
    <mxGraphModel dx="4642" dy="2407" grid="1" gridSize="10" guides="1" tooltips="1" connect="1" arrows="1" fold="1" page="1" pageScale="1" pageWidth="1169" pageHeight="827" math="0" shadow="0">
      <root>
        <mxCell id="0" />
        <mxCell id="1" parent="0" />
        <mxCell id="MG_LVtpam4iUi1cTAw5i-4" style="edgeStyle=orthogonalEdgeStyle;rounded=0;orthogonalLoop=1;jettySize=auto;html=1;exitX=0.5;exitY=1;exitDx=0;exitDy=0;entryX=0.5;entryY=0;entryDx=0;entryDy=0;strokeWidth=3;" parent="1" source="MG_LVtpam4iUi1cTAw5i-1" target="MG_LVtpam4iUi1cTAw5i-77" edge="1">
          <mxGeometry relative="1" as="geometry">
            <mxPoint x="525" y="160" as="targetPoint" />
          </mxGeometry>
        </mxCell>
        <mxCell id="MG_LVtpam4iUi1cTAw5i-1" value="Inicio" style="ellipse;whiteSpace=wrap;html=1;fillColor=#dae8fc;strokeColor=#6c8ebf;strokeWidth=3;" parent="1" vertex="1">
          <mxGeometry x="465" y="40" width="120" height="80" as="geometry" />
        </mxCell>
        <mxCell id="MG_LVtpam4iUi1cTAw5i-6" style="edgeStyle=orthogonalEdgeStyle;rounded=0;orthogonalLoop=1;jettySize=auto;html=1;exitX=0.5;exitY=1;exitDx=0;exitDy=0;strokeWidth=3;" parent="1" source="MG_LVtpam4iUi1cTAw5i-2" target="MG_LVtpam4iUi1cTAw5i-5" edge="1">
          <mxGeometry relative="1" as="geometry" />
        </mxCell>
        <mxCell id="MG_LVtpam4iUi1cTAw5i-2" value="modelo" style="shape=parallelogram;perimeter=parallelogramPerimeter;whiteSpace=wrap;html=1;fixedSize=1;fillColor=#d5e8d4;strokeColor=#82b366;strokeWidth=3;" parent="1" vertex="1">
          <mxGeometry x="465" y="240" width="120" height="60" as="geometry" />
        </mxCell>
        <mxCell id="MG_LVtpam4iUi1cTAw5i-7" value="V" style="edgeStyle=orthogonalEdgeStyle;rounded=0;orthogonalLoop=1;jettySize=auto;html=1;exitX=1;exitY=0.5;exitDx=0;exitDy=0;fontFamily=Helvetica;fontSize=12;fontColor=default;strokeWidth=3;" parent="1" source="MG_LVtpam4iUi1cTAw5i-5" edge="1">
          <mxGeometry relative="1" as="geometry">
            <mxPoint x="730" y="490" as="targetPoint" />
          </mxGeometry>
        </mxCell>
        <mxCell id="BEKyneoZ9f7303ZgqTsw-156" value="F" style="edgeStyle=orthogonalEdgeStyle;rounded=0;orthogonalLoop=1;jettySize=auto;html=1;exitX=0;exitY=0.5;exitDx=0;exitDy=0;entryX=0.5;entryY=0;entryDx=0;entryDy=0;strokeWidth=3;" parent="1" source="MG_LVtpam4iUi1cTAw5i-5" target="BEKyneoZ9f7303ZgqTsw-157" edge="1">
          <mxGeometry relative="1" as="geometry">
            <mxPoint x="-1060" y="1690" as="targetPoint" />
          </mxGeometry>
        </mxCell>
        <mxCell id="MG_LVtpam4iUi1cTAw5i-5" value="disponible = verdadero" style="rhombus;whiteSpace=wrap;html=1;fillColor=#fff2cc;strokeColor=#d6b656;strokeWidth=3;" parent="1" vertex="1">
          <mxGeometry x="450" y="330" width="150" height="80" as="geometry" />
        </mxCell>
        <mxCell id="MG_LVtpam4iUi1cTAw5i-10" style="edgeStyle=orthogonalEdgeStyle;rounded=0;orthogonalLoop=1;jettySize=auto;html=1;fontFamily=Helvetica;fontSize=12;fontColor=default;strokeWidth=3;" parent="1" source="MG_LVtpam4iUi1cTAw5i-9" target="MG_LVtpam4iUi1cTAw5i-11" edge="1">
          <mxGeometry relative="1" as="geometry">
            <mxPoint x="730" y="640" as="targetPoint" />
          </mxGeometry>
        </mxCell>
        <mxCell id="MG_LVtpam4iUi1cTAw5i-9" value="edad" style="shape=parallelogram;perimeter=parallelogramPerimeter;whiteSpace=wrap;html=1;fixedSize=1;strokeColor=#82b366;align=center;verticalAlign=middle;fontFamily=Helvetica;fontSize=12;fillColor=#d5e8d4;strokeWidth=3;" parent="1" vertex="1">
          <mxGeometry x="670" y="490" width="120" height="60" as="geometry" />
        </mxCell>
        <mxCell id="MG_LVtpam4iUi1cTAw5i-13" value="V" style="edgeStyle=orthogonalEdgeStyle;rounded=0;orthogonalLoop=1;jettySize=auto;html=1;exitX=1;exitY=0.5;exitDx=0;exitDy=0;fontFamily=Helvetica;fontSize=12;fontColor=default;entryX=0.5;entryY=0;entryDx=0;entryDy=0;strokeWidth=3;" parent="1" source="MG_LVtpam4iUi1cTAw5i-11" target="MG_LVtpam4iUi1cTAw5i-18" edge="1">
          <mxGeometry relative="1" as="geometry">
            <mxPoint x="960" y="810" as="targetPoint" />
          </mxGeometry>
        </mxCell>
        <mxCell id="MG_LVtpam4iUi1cTAw5i-14" value="F" style="edgeStyle=orthogonalEdgeStyle;rounded=0;orthogonalLoop=1;jettySize=auto;html=1;exitX=0;exitY=0.5;exitDx=0;exitDy=0;fontFamily=Helvetica;fontSize=12;fontColor=default;entryX=0.5;entryY=0;entryDx=0;entryDy=0;strokeWidth=3;" parent="1" source="MG_LVtpam4iUi1cTAw5i-11" target="BEKyneoZ9f7303ZgqTsw-128" edge="1">
          <mxGeometry relative="1" as="geometry">
            <mxPoint x="-750" y="1500" as="targetPoint" />
            <Array as="points">
              <mxPoint x="-750" y="640" />
            </Array>
          </mxGeometry>
        </mxCell>
        <mxCell id="MG_LVtpam4iUi1cTAw5i-11" value="edad &amp;gt;= 25" style="rhombus;whiteSpace=wrap;html=1;strokeColor=#d6b656;align=center;verticalAlign=middle;fontFamily=Helvetica;fontSize=12;fontColor=default;fillColor=#fff2cc;strokeWidth=3;" parent="1" vertex="1">
          <mxGeometry x="660" y="600" width="140" height="80" as="geometry" />
        </mxCell>
        <mxCell id="MG_LVtpam4iUi1cTAw5i-16" style="edgeStyle=orthogonalEdgeStyle;rounded=0;orthogonalLoop=1;jettySize=auto;html=1;fontFamily=Helvetica;fontSize=12;fontColor=default;exitX=0.502;exitY=0.846;exitDx=0;exitDy=0;exitPerimeter=0;strokeWidth=3;" parent="1" source="MG_LVtpam4iUi1cTAw5i-15" edge="1">
          <mxGeometry relative="1" as="geometry">
            <mxPoint x="-820" y="13240" as="targetPoint" />
            <Array as="points">
              <mxPoint x="-820" y="13230" />
            </Array>
          </mxGeometry>
        </mxCell>
        <mxCell id="MG_LVtpam4iUi1cTAw5i-15" value="&quot;No puede continuar con su reserva.&quot;" style="shape=document;whiteSpace=wrap;html=1;boundedLbl=1;strokeColor=#9673a6;align=center;verticalAlign=middle;fontFamily=Helvetica;fontSize=12;fillColor=#e1d5e7;strokeWidth=3;" parent="1" vertex="1">
          <mxGeometry x="-880" y="3308" width="120" height="80" as="geometry" />
        </mxCell>
        <mxCell id="MG_LVtpam4iUi1cTAw5i-20" value="" style="edgeStyle=orthogonalEdgeStyle;rounded=0;orthogonalLoop=1;jettySize=auto;html=1;fontFamily=Helvetica;fontSize=12;fontColor=default;strokeWidth=3;" parent="1" source="MG_LVtpam4iUi1cTAw5i-18" target="MG_LVtpam4iUi1cTAw5i-19" edge="1">
          <mxGeometry relative="1" as="geometry" />
        </mxCell>
        <mxCell id="MG_LVtpam4iUi1cTAw5i-18" value="nombre" style="shape=parallelogram;perimeter=parallelogramPerimeter;whiteSpace=wrap;html=1;fixedSize=1;strokeColor=#82b366;align=center;verticalAlign=middle;fontFamily=Helvetica;fontSize=12;fillColor=#d5e8d4;strokeWidth=3;" parent="1" vertex="1">
          <mxGeometry x="1020" y="750" width="120" height="60" as="geometry" />
        </mxCell>
        <mxCell id="MG_LVtpam4iUi1cTAw5i-22" value="" style="edgeStyle=orthogonalEdgeStyle;rounded=0;orthogonalLoop=1;jettySize=auto;html=1;fontFamily=Helvetica;fontSize=12;fontColor=default;strokeWidth=3;" parent="1" source="MG_LVtpam4iUi1cTAw5i-19" target="MG_LVtpam4iUi1cTAw5i-21" edge="1">
          <mxGeometry relative="1" as="geometry" />
        </mxCell>
        <mxCell id="MG_LVtpam4iUi1cTAw5i-19" value="apellido" style="shape=parallelogram;perimeter=parallelogramPerimeter;whiteSpace=wrap;html=1;fixedSize=1;strokeColor=#82b366;align=center;verticalAlign=middle;fontFamily=Helvetica;fontSize=12;fillColor=#d5e8d4;strokeWidth=3;" parent="1" vertex="1">
          <mxGeometry x="1020" y="837" width="120" height="60" as="geometry" />
        </mxCell>
        <mxCell id="MG_LVtpam4iUi1cTAw5i-24" value="" style="edgeStyle=orthogonalEdgeStyle;rounded=0;orthogonalLoop=1;jettySize=auto;html=1;fontFamily=Helvetica;fontSize=12;fontColor=default;strokeWidth=3;" parent="1" source="MG_LVtpam4iUi1cTAw5i-21" target="MG_LVtpam4iUi1cTAw5i-23" edge="1">
          <mxGeometry relative="1" as="geometry" />
        </mxCell>
        <mxCell id="MG_LVtpam4iUi1cTAw5i-21" value="dni" style="shape=parallelogram;perimeter=parallelogramPerimeter;whiteSpace=wrap;html=1;fixedSize=1;strokeColor=#82b366;align=center;verticalAlign=middle;fontFamily=Helvetica;fontSize=12;fillColor=#d5e8d4;strokeWidth=3;" parent="1" vertex="1">
          <mxGeometry x="1020" y="930" width="120" height="60" as="geometry" />
        </mxCell>
        <mxCell id="MG_LVtpam4iUi1cTAw5i-26" value="" style="edgeStyle=orthogonalEdgeStyle;rounded=0;orthogonalLoop=1;jettySize=auto;html=1;fontFamily=Helvetica;fontSize=12;fontColor=default;strokeWidth=3;" parent="1" source="MG_LVtpam4iUi1cTAw5i-23" target="MG_LVtpam4iUi1cTAw5i-25" edge="1">
          <mxGeometry relative="1" as="geometry" />
        </mxCell>
        <mxCell id="MG_LVtpam4iUi1cTAw5i-23" value="tel" style="shape=parallelogram;perimeter=parallelogramPerimeter;whiteSpace=wrap;html=1;fixedSize=1;strokeColor=#82b366;align=center;verticalAlign=middle;fontFamily=Helvetica;fontSize=12;fillColor=#d5e8d4;strokeWidth=3;" parent="1" vertex="1">
          <mxGeometry x="1020" y="1030" width="120" height="60" as="geometry" />
        </mxCell>
        <mxCell id="MG_LVtpam4iUi1cTAw5i-28" value="" style="edgeStyle=orthogonalEdgeStyle;rounded=0;orthogonalLoop=1;jettySize=auto;html=1;fontFamily=Helvetica;fontSize=12;fontColor=default;strokeWidth=3;" parent="1" source="MG_LVtpam4iUi1cTAw5i-25" target="MG_LVtpam4iUi1cTAw5i-27" edge="1">
          <mxGeometry relative="1" as="geometry" />
        </mxCell>
        <mxCell id="MG_LVtpam4iUi1cTAw5i-25" value="dom" style="shape=parallelogram;perimeter=parallelogramPerimeter;whiteSpace=wrap;html=1;fixedSize=1;strokeColor=#82b366;align=center;verticalAlign=middle;fontFamily=Helvetica;fontSize=12;fillColor=#d5e8d4;strokeWidth=3;" parent="1" vertex="1">
          <mxGeometry x="1020" y="1130" width="120" height="60" as="geometry" />
        </mxCell>
        <mxCell id="MG_LVtpam4iUi1cTAw5i-30" value="" style="edgeStyle=orthogonalEdgeStyle;rounded=0;orthogonalLoop=1;jettySize=auto;html=1;fontFamily=Helvetica;fontSize=12;fontColor=default;strokeWidth=3;" parent="1" source="MG_LVtpam4iUi1cTAw5i-27" target="MG_LVtpam4iUi1cTAw5i-29" edge="1">
          <mxGeometry relative="1" as="geometry" />
        </mxCell>
        <mxCell id="MG_LVtpam4iUi1cTAw5i-27" value="empresa" style="shape=parallelogram;perimeter=parallelogramPerimeter;whiteSpace=wrap;html=1;fixedSize=1;strokeColor=#82b366;align=center;verticalAlign=middle;fontFamily=Helvetica;fontSize=12;fillColor=#d5e8d4;strokeWidth=3;" parent="1" vertex="1">
          <mxGeometry x="1020" y="1220" width="120" height="60" as="geometry" />
        </mxCell>
        <mxCell id="MG_LVtpam4iUi1cTAw5i-32" value="" style="edgeStyle=orthogonalEdgeStyle;rounded=0;orthogonalLoop=1;jettySize=auto;html=1;fontFamily=Helvetica;fontSize=12;fontColor=default;strokeWidth=3;" parent="1" source="MG_LVtpam4iUi1cTAw5i-29" target="MG_LVtpam4iUi1cTAw5i-31" edge="1">
          <mxGeometry relative="1" as="geometry" />
        </mxCell>
        <mxCell id="MG_LVtpam4iUi1cTAw5i-29" value="tel_lab" style="shape=parallelogram;perimeter=parallelogramPerimeter;whiteSpace=wrap;html=1;fixedSize=1;strokeColor=#82b366;align=center;verticalAlign=middle;fontFamily=Helvetica;fontSize=12;fillColor=#d5e8d4;strokeWidth=3;" parent="1" vertex="1">
          <mxGeometry x="1020" y="1311" width="120" height="60" as="geometry" />
        </mxCell>
        <mxCell id="MG_LVtpam4iUi1cTAw5i-36" value="" style="edgeStyle=orthogonalEdgeStyle;rounded=0;orthogonalLoop=1;jettySize=auto;html=1;fontFamily=Helvetica;fontSize=12;fontColor=default;entryX=0.5;entryY=0;entryDx=0;entryDy=0;strokeWidth=3;" parent="1" source="MG_LVtpam4iUi1cTAw5i-31" target="MG_LVtpam4iUi1cTAw5i-35" edge="1">
          <mxGeometry relative="1" as="geometry">
            <mxPoint x="1080" y="1510" as="targetPoint" />
          </mxGeometry>
        </mxCell>
        <mxCell id="MG_LVtpam4iUi1cTAw5i-31" value="dom_lab" style="shape=parallelogram;perimeter=parallelogramPerimeter;whiteSpace=wrap;html=1;fixedSize=1;strokeColor=#82b366;align=center;verticalAlign=middle;fontFamily=Helvetica;fontSize=12;fillColor=#d5e8d4;strokeWidth=3;" parent="1" vertex="1">
          <mxGeometry x="1020" y="1400" width="120" height="60" as="geometry" />
        </mxCell>
        <mxCell id="BEKyneoZ9f7303ZgqTsw-135" value="" style="edgeStyle=orthogonalEdgeStyle;rounded=0;orthogonalLoop=1;jettySize=auto;html=1;strokeWidth=3;" parent="1" source="MG_LVtpam4iUi1cTAw5i-35" target="BEKyneoZ9f7303ZgqTsw-134" edge="1">
          <mxGeometry relative="1" as="geometry" />
        </mxCell>
        <mxCell id="MG_LVtpam4iUi1cTAw5i-35" value="turista" style="shape=parallelogram;perimeter=parallelogramPerimeter;whiteSpace=wrap;html=1;fixedSize=1;strokeColor=#82b366;align=center;verticalAlign=middle;fontFamily=Helvetica;fontSize=12;fillColor=#d5e8d4;strokeWidth=3;" parent="1" vertex="1">
          <mxGeometry x="1020" y="1530" width="120" height="60" as="geometry" />
        </mxCell>
        <mxCell id="MG_LVtpam4iUi1cTAw5i-39" value="V" style="edgeStyle=orthogonalEdgeStyle;rounded=0;orthogonalLoop=1;jettySize=auto;html=1;fontFamily=Helvetica;fontSize=12;fontColor=default;entryX=0.5;entryY=0;entryDx=0;entryDy=0;strokeWidth=3;" parent="1" source="MG_LVtpam4iUi1cTAw5i-37" target="MG_LVtpam4iUi1cTAw5i-41" edge="1">
          <mxGeometry relative="1" as="geometry">
            <mxPoint x="1240" y="1980" as="targetPoint" />
          </mxGeometry>
        </mxCell>
        <mxCell id="MG_LVtpam4iUi1cTAw5i-40" value="F" style="edgeStyle=orthogonalEdgeStyle;rounded=0;orthogonalLoop=1;jettySize=auto;html=1;fontFamily=Helvetica;fontSize=12;fontColor=default;entryX=0.5;entryY=0;entryDx=0;entryDy=0;strokeWidth=3;" parent="1" source="MG_LVtpam4iUi1cTAw5i-37" target="MG_LVtpam4iUi1cTAw5i-42" edge="1">
          <mxGeometry relative="1" as="geometry">
            <mxPoint x="600" y="1910" as="targetPoint" />
            <Array as="points">
              <mxPoint x="830" y="1870" />
            </Array>
          </mxGeometry>
        </mxCell>
        <mxCell id="MG_LVtpam4iUi1cTAw5i-37" value="turista = verdadero" style="rhombus;whiteSpace=wrap;html=1;fillColor=#fff2cc;strokeColor=#d6b656;strokeWidth=3;" parent="1" vertex="1">
          <mxGeometry x="1010" y="1830" width="140" height="80" as="geometry" />
        </mxCell>
        <mxCell id="MG_LVtpam4iUi1cTAw5i-44" value="" style="edgeStyle=orthogonalEdgeStyle;rounded=0;orthogonalLoop=1;jettySize=auto;html=1;fontFamily=Helvetica;fontSize=12;fontColor=default;strokeWidth=3;" parent="1" source="MG_LVtpam4iUi1cTAw5i-41" target="MG_LVtpam4iUi1cTAw5i-43" edge="1">
          <mxGeometry relative="1" as="geometry" />
        </mxCell>
        <mxCell id="MG_LVtpam4iUi1cTAw5i-41" value="origen" style="shape=parallelogram;perimeter=parallelogramPerimeter;whiteSpace=wrap;html=1;fixedSize=1;strokeColor=#82b366;align=center;verticalAlign=middle;fontFamily=Helvetica;fontSize=12;fillColor=#d5e8d4;strokeWidth=3;" parent="1" vertex="1">
          <mxGeometry x="1180" y="1980" width="120" height="60" as="geometry" />
        </mxCell>
        <mxCell id="MG_LVtpam4iUi1cTAw5i-45" style="edgeStyle=orthogonalEdgeStyle;rounded=0;orthogonalLoop=1;jettySize=auto;html=1;exitX=0.5;exitY=1;exitDx=0;exitDy=0;fontFamily=Helvetica;fontSize=12;fontColor=default;strokeWidth=3;" parent="1" source="MG_LVtpam4iUi1cTAw5i-42" target="MG_LVtpam4iUi1cTAw5i-230" edge="1">
          <mxGeometry relative="1" as="geometry">
            <mxPoint x="829.8235294117649" y="2310" as="targetPoint" />
          </mxGeometry>
        </mxCell>
        <mxCell id="MG_LVtpam4iUi1cTAw5i-42" value="origen&amp;nbsp;â local" style="rounded=0;whiteSpace=wrap;html=1;strokeColor=#d79b00;align=center;verticalAlign=middle;fontFamily=Helvetica;fontSize=12;fillColor=#ffe6cc;strokeWidth=3;" parent="1" vertex="1">
          <mxGeometry x="770" y="2020" width="120" height="60" as="geometry" />
        </mxCell>
        <mxCell id="MG_LVtpam4iUi1cTAw5i-46" style="edgeStyle=orthogonalEdgeStyle;rounded=0;orthogonalLoop=1;jettySize=auto;html=1;exitX=0.5;exitY=1;exitDx=0;exitDy=0;fontFamily=Helvetica;fontSize=12;fontColor=default;entryX=0.5;entryY=0;entryDx=0;entryDy=0;strokeWidth=3;" parent="1" source="MG_LVtpam4iUi1cTAw5i-43" target="MG_LVtpam4iUi1cTAw5i-234" edge="1">
          <mxGeometry relative="1" as="geometry">
            <mxPoint x="1240" y="2220" as="targetPoint" />
          </mxGeometry>
        </mxCell>
        <mxCell id="MG_LVtpam4iUi1cTAw5i-43" value="hot_ag" style="shape=parallelogram;perimeter=parallelogramPerimeter;whiteSpace=wrap;html=1;fixedSize=1;strokeColor=#82b366;align=center;verticalAlign=middle;fontFamily=Helvetica;fontSize=12;fillColor=#d5e8d4;strokeWidth=3;" parent="1" vertex="1">
          <mxGeometry x="1180" y="2090" width="120" height="60" as="geometry" />
        </mxCell>
        <mxCell id="MG_LVtpam4iUi1cTAw5i-53" value="V" style="edgeStyle=orthogonalEdgeStyle;rounded=0;orthogonalLoop=1;jettySize=auto;html=1;fontFamily=Helvetica;fontSize=12;fontColor=default;entryX=0.5;entryY=0;entryDx=0;entryDy=0;strokeWidth=3;" parent="1" source="MG_LVtpam4iUi1cTAw5i-50" target="MG_LVtpam4iUi1cTAw5i-54" edge="1">
          <mxGeometry relative="1" as="geometry">
            <mxPoint x="1260.0000000000002" y="3280" as="targetPoint" />
          </mxGeometry>
        </mxCell>
        <mxCell id="MG_LVtpam4iUi1cTAw5i-59" value="F" style="edgeStyle=orthogonalEdgeStyle;rounded=0;orthogonalLoop=1;jettySize=auto;html=1;exitX=0;exitY=0.5;exitDx=0;exitDy=0;fontFamily=Helvetica;fontSize=12;fontColor=default;strokeWidth=3;" parent="1" source="MG_LVtpam4iUi1cTAw5i-50" target="MG_LVtpam4iUi1cTAw5i-60" edge="1">
          <mxGeometry relative="1" as="geometry">
            <mxPoint x="900" y="3330" as="targetPoint" />
          </mxGeometry>
        </mxCell>
        <mxCell id="MG_LVtpam4iUi1cTAw5i-50" value="vip = verdadero" style="rhombus;whiteSpace=wrap;html=1;strokeColor=#d6b656;align=center;verticalAlign=middle;fontFamily=Helvetica;fontSize=12;fontColor=default;fillColor=#fff2cc;strokeWidth=3;" parent="1" vertex="1">
          <mxGeometry x="1020" y="3190" width="120" height="80" as="geometry" />
        </mxCell>
        <mxCell id="MG_LVtpam4iUi1cTAw5i-52" value="" style="endArrow=classic;html=1;rounded=0;fontFamily=Helvetica;fontSize=12;fontColor=default;entryX=0.5;entryY=0;entryDx=0;entryDy=0;exitX=0.5;exitY=1;exitDx=0;exitDy=0;strokeWidth=3;" parent="1" source="BEKyneoZ9f7303ZgqTsw-9" target="MG_LVtpam4iUi1cTAw5i-50" edge="1">
          <mxGeometry width="50" height="50" relative="1" as="geometry">
            <mxPoint x="1080" y="3070" as="sourcePoint" />
            <mxPoint x="1100" y="3130" as="targetPoint" />
          </mxGeometry>
        </mxCell>
        <mxCell id="MG_LVtpam4iUi1cTAw5i-56" value="" style="edgeStyle=orthogonalEdgeStyle;rounded=0;orthogonalLoop=1;jettySize=auto;html=1;fontFamily=Helvetica;fontSize=12;fontColor=default;entryX=0.5;entryY=0;entryDx=0;entryDy=0;exitX=0.5;exitY=1;exitDx=0;exitDy=0;strokeWidth=3;" parent="1" source="MG_LVtpam4iUi1cTAw5i-54" target="MG_LVtpam4iUi1cTAw5i-55" edge="1">
          <mxGeometry relative="1" as="geometry" />
        </mxCell>
        <mxCell id="MG_LVtpam4iUi1cTAw5i-54" value="&lt;br&gt;descuento_vip â x&lt;div&gt;&lt;br&gt;&lt;/div&gt;" style="rounded=0;whiteSpace=wrap;html=1;strokeColor=#d79b00;align=center;verticalAlign=middle;fontFamily=Helvetica;fontSize=12;fillColor=#ffe6cc;strokeWidth=3;" parent="1" vertex="1">
          <mxGeometry x="1205" y="3270" width="120" height="60" as="geometry" />
        </mxCell>
        <mxCell id="MG_LVtpam4iUi1cTAw5i-58" style="edgeStyle=orthogonalEdgeStyle;rounded=0;orthogonalLoop=1;jettySize=auto;html=1;exitX=0.5;exitY=1;exitDx=0;exitDy=0;entryX=0.5;entryY=0;entryDx=0;entryDy=0;fontFamily=Helvetica;fontSize=12;fontColor=default;strokeWidth=3;" parent="1" source="MG_LVtpam4iUi1cTAw5i-55" target="MG_LVtpam4iUi1cTAw5i-57" edge="1">
          <mxGeometry relative="1" as="geometry" />
        </mxCell>
        <mxCell id="MG_LVtpam4iUi1cTAw5i-55" value="fecha_venc&amp;nbsp;â dd/mm/yyy" style="whiteSpace=wrap;html=1;fillColor=#ffe6cc;strokeColor=#d79b00;rounded=0;strokeWidth=3;" parent="1" vertex="1">
          <mxGeometry x="1185" y="3380" width="160" height="60" as="geometry" />
        </mxCell>
        <mxCell id="BEKyneoZ9f7303ZgqTsw-26" style="edgeStyle=orthogonalEdgeStyle;rounded=0;orthogonalLoop=1;jettySize=auto;html=1;strokeWidth=3;" parent="1" source="MG_LVtpam4iUi1cTAw5i-57" target="BEKyneoZ9f7303ZgqTsw-27" edge="1">
          <mxGeometry relative="1" as="geometry">
            <mxPoint x="1270" y="3540" as="targetPoint" />
          </mxGeometry>
        </mxCell>
        <mxCell id="MG_LVtpam4iUi1cTAw5i-57" value="tarjeta â (&lt;span style=&quot;color: rgba(0, 0, 0, 0); font-family: monospace; font-size: 0px; text-align: start; text-wrap-mode: nowrap;&quot;&gt;%3CmxGraphModel%3E%3Croot%3E%3CmxCell%20id%3D%220%22%2F%3E%3CmxCell%20id%3D%221%22%20parent%3D%220%22%2F%3E%3CmxCell%20id%3D%222%22%20value%3D%22fecha_venc%26amp%3Bnbsp%3B%E2%86%90%2024%2F06%2F30%22%20style%3D%22whiteSpace%3Dwrap%3Bhtml%3D1%3BfillColor%3D%23ffe6cc%3BstrokeColor%3D%23d79b00%3Brounded%3D0%3B%22%20vertex%3D%221%22%20parent%3D%221%22%3E%3CmxGeometry%20x%3D%221060%22%20y%3D%222260%22%20width%3D%22140%22%20height%3D%2260%22%20as%3D%22geometry%22%2F%3E%3C%2FmxCell%3E%3C%2Froot%3E%3C%2FmxGraphModel%3E&lt;/span&gt;&lt;span style=&quot;color: rgba(0, 0, 0, 0); font-family: monospace; font-size: 0px; text-align: start; text-wrap-mode: nowrap;&quot;&gt;%3CmxGraphModel%3E%3Croot%3E%3CmxCell%20id%3D%220%22%2F%3E%3CmxCell%20id%3D%221%22%20parent%3D%220%22%2F%3E%3CmxCell%20id%3D%222%22%20value%3D%22fecha_venc%26amp%3Bnbsp%3B%E2%86%90%2024%2F06%2F30%22%20style%3D%22whiteSpace%3Dwrap%3Bhtml%3D1%3BfillColor%3D%23ffe6cc%3BstrokeColor%3D%23d79b00%3Brounded%3D0%3B%22%20vertex%3D%221%22%20parent%3D%221%22%3E%3CmxGeometry%20x%3D%221060%22%20y%3D%222260%22%20width%3D%22140%22%20height%3D%2260%22%20as%3D%22geometry%22%2F%3E%3C%2FmxCell%3E%3C%2Froot%3E%3C%2FmxGraphModel%3E((&lt;/span&gt;descuento_vip,fecha_venc)" style="whiteSpace=wrap;html=1;fillColor=#ffe6cc;strokeColor=#d79b00;rounded=0;strokeWidth=3;" parent="1" vertex="1">
          <mxGeometry x="1160" y="3470" width="220" height="60" as="geometry" />
        </mxCell>
        <mxCell id="MG_LVtpam4iUi1cTAw5i-62" value="" style="edgeStyle=orthogonalEdgeStyle;rounded=0;orthogonalLoop=1;jettySize=auto;html=1;fontFamily=Helvetica;fontSize=12;fontColor=default;strokeWidth=3;" parent="1" source="MG_LVtpam4iUi1cTAw5i-60" target="MG_LVtpam4iUi1cTAw5i-61" edge="1">
          <mxGeometry relative="1" as="geometry" />
        </mxCell>
        <mxCell id="MG_LVtpam4iUi1cTAw5i-60" value="medio_contacto" style="shape=parallelogram;perimeter=parallelogramPerimeter;whiteSpace=wrap;html=1;fixedSize=1;strokeColor=#82b366;align=center;verticalAlign=middle;fontFamily=Helvetica;fontSize=12;fillColor=#d5e8d4;strokeWidth=3;" parent="1" vertex="1">
          <mxGeometry x="840" y="3300" width="120" height="60" as="geometry" />
        </mxCell>
        <mxCell id="MG_LVtpam4iUi1cTAw5i-63" style="edgeStyle=orthogonalEdgeStyle;rounded=0;orthogonalLoop=1;jettySize=auto;html=1;fontFamily=Helvetica;fontSize=12;fontColor=default;entryX=0.5;entryY=0;entryDx=0;entryDy=0;strokeWidth=3;" parent="1" source="MG_LVtpam4iUi1cTAw5i-61" target="BEKyneoZ9f7303ZgqTsw-29" edge="1">
          <mxGeometry relative="1" as="geometry">
            <mxPoint x="900" y="3520" as="targetPoint" />
          </mxGeometry>
        </mxCell>
        <mxCell id="MG_LVtpam4iUi1cTAw5i-61" value="forma_pago" style="shape=parallelogram;perimeter=parallelogramPerimeter;whiteSpace=wrap;html=1;fixedSize=1;strokeColor=#82b366;align=center;verticalAlign=middle;fontFamily=Helvetica;fontSize=12;fillColor=#d5e8d4;strokeWidth=3;" parent="1" vertex="1">
          <mxGeometry x="840" y="3400" width="120" height="60" as="geometry" />
        </mxCell>
        <mxCell id="MG_LVtpam4iUi1cTAw5i-65" value="" style="endArrow=none;html=1;rounded=0;fontFamily=Helvetica;fontSize=12;fontColor=default;strokeWidth=3;" parent="1" edge="1">
          <mxGeometry width="50" height="50" relative="1" as="geometry">
            <mxPoint x="900" y="3630" as="sourcePoint" />
            <mxPoint x="1270" y="3630" as="targetPoint" />
          </mxGeometry>
        </mxCell>
        <mxCell id="MG_LVtpam4iUi1cTAw5i-67" value="Fin" style="ellipse;whiteSpace=wrap;html=1;strokeColor=#6c8ebf;align=center;verticalAlign=middle;fontFamily=Helvetica;fontSize=12;fillColor=#dae8fc;strokeWidth=3;" parent="1" vertex="1">
          <mxGeometry x="-644" y="13440" width="120" height="80" as="geometry" />
        </mxCell>
        <mxCell id="MG_LVtpam4iUi1cTAw5i-72" value="" style="edgeStyle=orthogonalEdgeStyle;rounded=0;orthogonalLoop=1;jettySize=auto;html=1;fontFamily=Helvetica;fontSize=12;fontColor=default;strokeWidth=3;" parent="1" source="MG_LVtpam4iUi1cTAw5i-68" target="MG_LVtpam4iUi1cTAw5i-71" edge="1">
          <mxGeometry relative="1" as="geometry" />
        </mxCell>
        <mxCell id="MG_LVtpam4iUi1cTAw5i-68" value="id_vehiculo â patente" style="whiteSpace=wrap;html=1;fillColor=#ffe6cc;strokeColor=#d79b00;rounded=0;strokeWidth=3;" parent="1" vertex="1">
          <mxGeometry x="990" y="3660" width="180" height="60" as="geometry" />
        </mxCell>
        <mxCell id="MG_LVtpam4iUi1cTAw5i-74" value="" style="edgeStyle=orthogonalEdgeStyle;rounded=0;orthogonalLoop=1;jettySize=auto;html=1;fontFamily=Helvetica;fontSize=12;fontColor=default;strokeWidth=3;" parent="1" source="MG_LVtpam4iUi1cTAw5i-71" target="MG_LVtpam4iUi1cTAw5i-73" edge="1">
          <mxGeometry relative="1" as="geometry" />
        </mxCell>
        <mxCell id="MG_LVtpam4iUi1cTAw5i-71" value="nro_chasis â ABCDEFG" style="whiteSpace=wrap;html=1;fillColor=#ffe6cc;strokeColor=#d79b00;rounded=0;strokeWidth=3;" parent="1" vertex="1">
          <mxGeometry x="1000" y="3800" width="160" height="60" as="geometry" />
        </mxCell>
        <mxCell id="MG_LVtpam4iUi1cTAw5i-76" value="" style="edgeStyle=orthogonalEdgeStyle;rounded=0;orthogonalLoop=1;jettySize=auto;html=1;fontFamily=Helvetica;fontSize=12;fontColor=default;strokeWidth=3;" parent="1" source="MG_LVtpam4iUi1cTAw5i-73" target="MG_LVtpam4iUi1cTAw5i-75" edge="1">
          <mxGeometry relative="1" as="geometry" />
        </mxCell>
        <mxCell id="MG_LVtpam4iUi1cTAw5i-73" value="tipo_motor â tipo" style="whiteSpace=wrap;html=1;fillColor=#ffe6cc;strokeColor=#d79b00;rounded=0;strokeWidth=3;" parent="1" vertex="1">
          <mxGeometry x="1020" y="3905" width="120" height="60" as="geometry" />
        </mxCell>
        <mxCell id="MG_LVtpam4iUi1cTAw5i-81" value="" style="edgeStyle=orthogonalEdgeStyle;rounded=0;orthogonalLoop=1;jettySize=auto;html=1;fontFamily=Helvetica;fontSize=12;fontColor=default;exitX=0.5;exitY=1;exitDx=0;exitDy=0;strokeWidth=3;" parent="1" source="BEKyneoZ9f7303ZgqTsw-32" target="MG_LVtpam4iUi1cTAw5i-80" edge="1">
          <mxGeometry relative="1" as="geometry">
            <mxPoint x="1080" y="4060" as="sourcePoint" />
          </mxGeometry>
        </mxCell>
        <mxCell id="BEKyneoZ9f7303ZgqTsw-31" style="edgeStyle=orthogonalEdgeStyle;rounded=0;orthogonalLoop=1;jettySize=auto;html=1;strokeWidth=3;" parent="1" source="MG_LVtpam4iUi1cTAw5i-75" target="BEKyneoZ9f7303ZgqTsw-32" edge="1">
          <mxGeometry relative="1" as="geometry">
            <mxPoint x="1080" y="4100" as="targetPoint" />
          </mxGeometry>
        </mxCell>
        <mxCell id="MG_LVtpam4iUi1cTAw5i-75" value="clase_vehiculo â clase" style="whiteSpace=wrap;html=1;fillColor=#ffe6cc;strokeColor=#d79b00;rounded=0;strokeWidth=3;" parent="1" vertex="1">
          <mxGeometry x="1000" y="4000" width="160" height="60" as="geometry" />
        </mxCell>
        <mxCell id="MG_LVtpam4iUi1cTAw5i-78" style="edgeStyle=orthogonalEdgeStyle;rounded=0;orthogonalLoop=1;jettySize=auto;html=1;exitX=0.5;exitY=1;exitDx=0;exitDy=0;entryX=0.5;entryY=0;entryDx=0;entryDy=0;fontFamily=Helvetica;fontSize=12;fontColor=default;strokeWidth=3;" parent="1" source="MG_LVtpam4iUi1cTAw5i-77" target="MG_LVtpam4iUi1cTAw5i-2" edge="1">
          <mxGeometry relative="1" as="geometry" />
        </mxCell>
        <mxCell id="MG_LVtpam4iUi1cTAw5i-77" value="oficina â ciudad" style="rounded=0;whiteSpace=wrap;html=1;strokeColor=#d79b00;align=center;verticalAlign=middle;fontFamily=Helvetica;fontSize=12;fillColor=#ffe6cc;strokeWidth=3;" parent="1" vertex="1">
          <mxGeometry x="465" y="160" width="120" height="60" as="geometry" />
        </mxCell>
        <mxCell id="MG_LVtpam4iUi1cTAw5i-82" value="V" style="edgeStyle=orthogonalEdgeStyle;rounded=0;orthogonalLoop=1;jettySize=auto;html=1;fontFamily=Helvetica;fontSize=12;fontColor=default;strokeWidth=3;" parent="1" source="MG_LVtpam4iUi1cTAw5i-80" target="MG_LVtpam4iUi1cTAw5i-83" edge="1">
          <mxGeometry relative="1" as="geometry">
            <mxPoint x="1299.9999999999995" y="4440" as="targetPoint" />
          </mxGeometry>
        </mxCell>
        <mxCell id="MG_LVtpam4iUi1cTAw5i-88" value="F" style="edgeStyle=orthogonalEdgeStyle;rounded=0;orthogonalLoop=1;jettySize=auto;html=1;fontFamily=Helvetica;fontSize=12;fontColor=default;strokeWidth=3;" parent="1" source="MG_LVtpam4iUi1cTAw5i-80" edge="1">
          <mxGeometry relative="1" as="geometry">
            <mxPoint x="800" y="4910" as="targetPoint" />
          </mxGeometry>
        </mxCell>
        <mxCell id="MG_LVtpam4iUi1cTAw5i-80" value="ciudad = bariloche" style="rhombus;whiteSpace=wrap;html=1;fillColor=#fff2cc;strokeColor=#d6b656;rounded=0;strokeWidth=3;" parent="1" vertex="1">
          <mxGeometry x="1010" y="4210" width="140" height="80" as="geometry" />
        </mxCell>
        <mxCell id="MG_LVtpam4iUi1cTAw5i-85" value="" style="edgeStyle=orthogonalEdgeStyle;rounded=0;orthogonalLoop=1;jettySize=auto;html=1;fontFamily=Helvetica;fontSize=12;fontColor=default;exitX=0.5;exitY=1;exitDx=0;exitDy=0;strokeWidth=3;" parent="1" source="BEKyneoZ9f7303ZgqTsw-38" target="MG_LVtpam4iUi1cTAw5i-84" edge="1">
          <mxGeometry relative="1" as="geometry">
            <mxPoint x="1295" y="4540" as="sourcePoint" />
          </mxGeometry>
        </mxCell>
        <mxCell id="BEKyneoZ9f7303ZgqTsw-36" value="" style="edgeStyle=orthogonalEdgeStyle;rounded=0;orthogonalLoop=1;jettySize=auto;html=1;strokeWidth=3;" parent="1" source="MG_LVtpam4iUi1cTAw5i-83" target="BEKyneoZ9f7303ZgqTsw-35" edge="1">
          <mxGeometry relative="1" as="geometry" />
        </mxCell>
        <mxCell id="MG_LVtpam4iUi1cTAw5i-83" value="4x4 â V/F" style="rounded=0;whiteSpace=wrap;html=1;strokeColor=#d79b00;align=center;verticalAlign=middle;fontFamily=Helvetica;fontSize=12;fillColor=#ffe6cc;strokeWidth=3;" parent="1" vertex="1">
          <mxGeometry x="1234.9999999999995" y="4300" width="120" height="60" as="geometry" />
        </mxCell>
        <mxCell id="MG_LVtpam4iUi1cTAw5i-87" value="" style="edgeStyle=orthogonalEdgeStyle;rounded=0;orthogonalLoop=1;jettySize=auto;html=1;fontFamily=Helvetica;fontSize=12;fontColor=default;strokeWidth=3;" parent="1" source="MG_LVtpam4iUi1cTAw5i-84" target="MG_LVtpam4iUi1cTAw5i-86" edge="1">
          <mxGeometry relative="1" as="geometry" />
        </mxCell>
        <mxCell id="MG_LVtpam4iUi1cTAw5i-84" value="eq_inv â (cadenas â T/F, neum_esp â T/F)" style="whiteSpace=wrap;html=1;fillColor=#ffe6cc;strokeColor=#d79b00;rounded=0;strokeWidth=3;" parent="1" vertex="1">
          <mxGeometry x="1170" y="4550" width="250" height="60" as="geometry" />
        </mxCell>
        <mxCell id="BEKyneoZ9f7303ZgqTsw-34" value="" style="edgeStyle=orthogonalEdgeStyle;rounded=0;orthogonalLoop=1;jettySize=auto;html=1;strokeWidth=3;" parent="1" source="MG_LVtpam4iUi1cTAw5i-86" target="BEKyneoZ9f7303ZgqTsw-33" edge="1">
          <mxGeometry relative="1" as="geometry" />
        </mxCell>
        <mxCell id="MG_LVtpam4iUi1cTAw5i-86" value="permiso_mun â cod" style="whiteSpace=wrap;html=1;fillColor=#ffe6cc;strokeColor=#d79b00;rounded=0;strokeWidth=3;" parent="1" vertex="1">
          <mxGeometry x="1235" y="4640" width="120" height="60" as="geometry" />
        </mxCell>
        <mxCell id="MG_LVtpam4iUi1cTAw5i-90" value="" style="endArrow=none;html=1;rounded=0;fontFamily=Helvetica;fontSize=12;fontColor=default;strokeWidth=3;" parent="1" edge="1">
          <mxGeometry width="50" height="50" relative="1" as="geometry">
            <mxPoint x="800" y="4910" as="sourcePoint" />
            <mxPoint x="1300" y="4910" as="targetPoint" />
          </mxGeometry>
        </mxCell>
        <mxCell id="MG_LVtpam4iUi1cTAw5i-91" value="" style="endArrow=classic;html=1;rounded=0;fontFamily=Helvetica;fontSize=12;fontColor=default;entryX=0.5;entryY=0;entryDx=0;entryDy=0;strokeWidth=3;" parent="1" target="MG_LVtpam4iUi1cTAw5i-92" edge="1">
          <mxGeometry width="50" height="50" relative="1" as="geometry">
            <mxPoint x="1040" y="4910" as="sourcePoint" />
            <mxPoint x="1040" y="4790" as="targetPoint" />
          </mxGeometry>
        </mxCell>
        <mxCell id="MG_LVtpam4iUi1cTAw5i-94" value="" style="edgeStyle=orthogonalEdgeStyle;rounded=0;orthogonalLoop=1;jettySize=auto;html=1;fontFamily=Helvetica;fontSize=12;fontColor=default;strokeWidth=3;" parent="1" source="MG_LVtpam4iUi1cTAw5i-92" target="MG_LVtpam4iUi1cTAw5i-93" edge="1">
          <mxGeometry relative="1" as="geometry" />
        </mxCell>
        <mxCell id="MG_LVtpam4iUi1cTAw5i-92" value="tiempo_alquiler" style="shape=parallelogram;perimeter=parallelogramPerimeter;whiteSpace=wrap;html=1;fixedSize=1;strokeColor=#82b366;align=center;verticalAlign=middle;fontFamily=Helvetica;fontSize=12;fillColor=#d5e8d4;strokeWidth=3;" parent="1" vertex="1">
          <mxGeometry x="940" y="4950" width="200" height="60" as="geometry" />
        </mxCell>
        <mxCell id="MG_LVtpam4iUi1cTAw5i-95" value="V" style="edgeStyle=orthogonalEdgeStyle;rounded=0;orthogonalLoop=1;jettySize=auto;html=1;fontFamily=Helvetica;fontSize=12;fontColor=default;strokeWidth=3;" parent="1" source="MG_LVtpam4iUi1cTAw5i-93" target="MG_LVtpam4iUi1cTAw5i-97" edge="1">
          <mxGeometry relative="1" as="geometry">
            <mxPoint x="1310" y="5220" as="targetPoint" />
          </mxGeometry>
        </mxCell>
        <mxCell id="MG_LVtpam4iUi1cTAw5i-98" value="F" style="edgeStyle=orthogonalEdgeStyle;rounded=0;orthogonalLoop=1;jettySize=auto;html=1;exitX=0;exitY=0.5;exitDx=0;exitDy=0;fontFamily=Helvetica;fontSize=12;fontColor=default;strokeWidth=3;" parent="1" source="MG_LVtpam4iUi1cTAw5i-93" target="MG_LVtpam4iUi1cTAw5i-99" edge="1">
          <mxGeometry relative="1" as="geometry">
            <mxPoint x="720" y="5350" as="targetPoint" />
          </mxGeometry>
        </mxCell>
        <mxCell id="MG_LVtpam4iUi1cTAw5i-93" value="tiempo_alquiler = dia" style="rhombus;whiteSpace=wrap;html=1;fillColor=#fff2cc;strokeColor=#d6b656;strokeWidth=3;" parent="1" vertex="1">
          <mxGeometry x="940" y="5090" width="200" height="80" as="geometry" />
        </mxCell>
        <mxCell id="MG_LVtpam4iUi1cTAw5i-137" value="" style="edgeStyle=orthogonalEdgeStyle;rounded=0;orthogonalLoop=1;jettySize=auto;html=1;fontFamily=Helvetica;fontSize=12;fontColor=default;strokeWidth=3;" parent="1" source="MG_LVtpam4iUi1cTAw5i-97" target="MG_LVtpam4iUi1cTAw5i-136" edge="1">
          <mxGeometry relative="1" as="geometry" />
        </mxCell>
        <mxCell id="MG_LVtpam4iUi1cTAw5i-97" value="tipo_tar â diaria" style="rounded=0;whiteSpace=wrap;html=1;strokeColor=#d79b00;align=center;verticalAlign=middle;fontFamily=Helvetica;fontSize=12;fillColor=#ffe6cc;strokeWidth=3;" parent="1" vertex="1">
          <mxGeometry x="1250" y="5190" width="120" height="60" as="geometry" />
        </mxCell>
        <mxCell id="MG_LVtpam4iUi1cTAw5i-102" value="V" style="edgeStyle=orthogonalEdgeStyle;rounded=0;orthogonalLoop=1;jettySize=auto;html=1;fontFamily=Helvetica;fontSize=12;fontColor=default;strokeWidth=3;" parent="1" source="MG_LVtpam4iUi1cTAw5i-99" target="MG_LVtpam4iUi1cTAw5i-101" edge="1">
          <mxGeometry relative="1" as="geometry" />
        </mxCell>
        <mxCell id="MG_LVtpam4iUi1cTAw5i-107" value="F" style="edgeStyle=orthogonalEdgeStyle;rounded=0;orthogonalLoop=1;jettySize=auto;html=1;fontFamily=Helvetica;fontSize=12;fontColor=default;strokeWidth=3;" parent="1" source="MG_LVtpam4iUi1cTAw5i-99" target="MG_LVtpam4iUi1cTAw5i-106" edge="1">
          <mxGeometry relative="1" as="geometry" />
        </mxCell>
        <mxCell id="MG_LVtpam4iUi1cTAw5i-99" value="tiempo_alquiler = finde" style="rhombus;whiteSpace=wrap;html=1;strokeColor=#d6b656;align=center;verticalAlign=middle;fontFamily=Helvetica;fontSize=12;fontColor=default;fillColor=#fff2cc;strokeWidth=3;" parent="1" vertex="1">
          <mxGeometry x="680" y="5310" width="170" height="80" as="geometry" />
        </mxCell>
        <mxCell id="MG_LVtpam4iUi1cTAw5i-140" value="" style="edgeStyle=orthogonalEdgeStyle;rounded=0;orthogonalLoop=1;jettySize=auto;html=1;fontFamily=Helvetica;fontSize=12;fontColor=default;strokeWidth=3;" parent="1" source="MG_LVtpam4iUi1cTAw5i-101" target="MG_LVtpam4iUi1cTAw5i-139" edge="1">
          <mxGeometry relative="1" as="geometry" />
        </mxCell>
        <mxCell id="MG_LVtpam4iUi1cTAw5i-101" value="tipo_tar â finde" style="whiteSpace=wrap;html=1;fillColor=#ffe6cc;strokeColor=#d79b00;strokeWidth=3;" parent="1" vertex="1">
          <mxGeometry x="930" y="5530" width="120" height="60" as="geometry" />
        </mxCell>
        <mxCell id="MG_LVtpam4iUi1cTAw5i-109" value="V" style="edgeStyle=orthogonalEdgeStyle;rounded=0;orthogonalLoop=1;jettySize=auto;html=1;fontFamily=Helvetica;fontSize=12;fontColor=default;strokeWidth=3;" parent="1" source="MG_LVtpam4iUi1cTAw5i-106" target="MG_LVtpam4iUi1cTAw5i-108" edge="1">
          <mxGeometry relative="1" as="geometry" />
        </mxCell>
        <mxCell id="MG_LVtpam4iUi1cTAw5i-111" value="F" style="edgeStyle=orthogonalEdgeStyle;rounded=0;orthogonalLoop=1;jettySize=auto;html=1;fontFamily=Helvetica;fontSize=12;fontColor=default;entryX=0.5;entryY=0;entryDx=0;entryDy=0;strokeWidth=3;" parent="1" source="MG_LVtpam4iUi1cTAw5i-106" target="MG_LVtpam4iUi1cTAw5i-110" edge="1">
          <mxGeometry relative="1" as="geometry">
            <mxPoint x="350" y="5640" as="targetPoint" />
          </mxGeometry>
        </mxCell>
        <mxCell id="MG_LVtpam4iUi1cTAw5i-106" value="tiempo_alquiler = semana" style="rhombus;whiteSpace=wrap;html=1;strokeColor=#d6b656;align=center;verticalAlign=middle;fontFamily=Helvetica;fontSize=12;fontColor=default;fillColor=#fff2cc;strokeWidth=3;" parent="1" vertex="1">
          <mxGeometry x="430" y="5520" width="170" height="80" as="geometry" />
        </mxCell>
        <mxCell id="MG_LVtpam4iUi1cTAw5i-143" value="" style="edgeStyle=orthogonalEdgeStyle;rounded=0;orthogonalLoop=1;jettySize=auto;html=1;fontFamily=Helvetica;fontSize=12;fontColor=default;strokeWidth=3;" parent="1" source="MG_LVtpam4iUi1cTAw5i-108" target="MG_LVtpam4iUi1cTAw5i-142" edge="1">
          <mxGeometry relative="1" as="geometry" />
        </mxCell>
        <mxCell id="MG_LVtpam4iUi1cTAw5i-108" value="tipo_tar â semana" style="whiteSpace=wrap;html=1;fillColor=#ffe6cc;strokeColor=#d79b00;strokeWidth=3;" parent="1" vertex="1">
          <mxGeometry x="620" y="5640" width="120" height="60" as="geometry" />
        </mxCell>
        <mxCell id="MG_LVtpam4iUi1cTAw5i-146" value="" style="edgeStyle=orthogonalEdgeStyle;rounded=0;orthogonalLoop=1;jettySize=auto;html=1;fontFamily=Helvetica;fontSize=12;fontColor=default;exitX=0.5;exitY=1;exitDx=0;exitDy=0;entryX=0.5;entryY=0;entryDx=0;entryDy=0;strokeWidth=3;" parent="1" source="MG_LVtpam4iUi1cTAw5i-110" target="MG_LVtpam4iUi1cTAw5i-145" edge="1">
          <mxGeometry relative="1" as="geometry">
            <mxPoint x="350" y="5700" as="sourcePoint" />
            <mxPoint x="350" y="5780" as="targetPoint" />
          </mxGeometry>
        </mxCell>
        <mxCell id="MG_LVtpam4iUi1cTAw5i-110" value="tipo_tar â mes_mas" style="whiteSpace=wrap;html=1;fillColor=#ffe6cc;strokeColor=#d79b00;strokeWidth=3;" parent="1" vertex="1">
          <mxGeometry x="290" y="5640" width="120" height="60" as="geometry" />
        </mxCell>
        <mxCell id="MG_LVtpam4iUi1cTAw5i-114" value="" style="endArrow=none;html=1;rounded=0;fontFamily=Helvetica;fontSize=12;fontColor=default;strokeWidth=3;" parent="1" edge="1">
          <mxGeometry width="50" height="50" relative="1" as="geometry">
            <mxPoint x="350" y="5900" as="sourcePoint" />
            <mxPoint x="680" y="5900" as="targetPoint" />
          </mxGeometry>
        </mxCell>
        <mxCell id="MG_LVtpam4iUi1cTAw5i-116" value="" style="endArrow=classic;html=1;rounded=0;fontFamily=Helvetica;fontSize=12;fontColor=default;strokeWidth=3;" parent="1" edge="1">
          <mxGeometry width="50" height="50" relative="1" as="geometry">
            <mxPoint x="510" y="5900" as="sourcePoint" />
            <mxPoint x="510" y="6150" as="targetPoint" />
          </mxGeometry>
        </mxCell>
        <mxCell id="MG_LVtpam4iUi1cTAw5i-117" value="" style="endArrow=none;html=1;rounded=0;fontFamily=Helvetica;fontSize=12;fontColor=default;strokeWidth=3;" parent="1" edge="1">
          <mxGeometry width="50" height="50" relative="1" as="geometry">
            <mxPoint x="510" y="6150" as="sourcePoint" />
            <mxPoint x="990" y="6150" as="targetPoint" />
          </mxGeometry>
        </mxCell>
        <mxCell id="MG_LVtpam4iUi1cTAw5i-118" value="" style="endArrow=classic;html=1;rounded=0;fontFamily=Helvetica;fontSize=12;fontColor=default;strokeWidth=3;" parent="1" edge="1">
          <mxGeometry width="50" height="50" relative="1" as="geometry">
            <mxPoint x="770" y="6150" as="sourcePoint" />
            <mxPoint x="770" y="6350" as="targetPoint" />
          </mxGeometry>
        </mxCell>
        <mxCell id="MG_LVtpam4iUi1cTAw5i-120" value="" style="endArrow=none;html=1;rounded=0;fontFamily=Helvetica;fontSize=12;fontColor=default;strokeWidth=3;" parent="1" edge="1">
          <mxGeometry width="50" height="50" relative="1" as="geometry">
            <mxPoint x="770" y="6350" as="sourcePoint" />
            <mxPoint x="1310" y="6350" as="targetPoint" />
          </mxGeometry>
        </mxCell>
        <mxCell id="MG_LVtpam4iUi1cTAw5i-121" value="" style="endArrow=classic;html=1;rounded=0;fontFamily=Helvetica;fontSize=12;fontColor=default;entryX=0.5;entryY=0;entryDx=0;entryDy=0;strokeWidth=3;" parent="1" target="MG_LVtpam4iUi1cTAw5i-122" edge="1">
          <mxGeometry width="50" height="50" relative="1" as="geometry">
            <mxPoint x="1060" y="6350" as="sourcePoint" />
            <mxPoint x="1060" y="6350" as="targetPoint" />
          </mxGeometry>
        </mxCell>
        <mxCell id="MG_LVtpam4iUi1cTAw5i-124" value="" style="edgeStyle=orthogonalEdgeStyle;rounded=0;orthogonalLoop=1;jettySize=auto;html=1;fontFamily=Helvetica;fontSize=12;fontColor=default;strokeWidth=3;" parent="1" source="MG_LVtpam4iUi1cTAw5i-122" target="MG_LVtpam4iUi1cTAw5i-123" edge="1">
          <mxGeometry relative="1" as="geometry" />
        </mxCell>
        <mxCell id="MG_LVtpam4iUi1cTAw5i-122" value="cod_tarifa â cod" style="rounded=0;whiteSpace=wrap;html=1;strokeColor=#d79b00;align=center;verticalAlign=middle;fontFamily=Helvetica;fontSize=12;fillColor=#ffe6cc;strokeWidth=3;" parent="1" vertex="1">
          <mxGeometry x="1000" y="6430" width="120" height="60" as="geometry" />
        </mxCell>
        <mxCell id="MG_LVtpam4iUi1cTAw5i-149" value="" style="edgeStyle=orthogonalEdgeStyle;rounded=0;orthogonalLoop=1;jettySize=auto;html=1;fontFamily=Helvetica;fontSize=12;fontColor=default;strokeWidth=3;" parent="1" source="MG_LVtpam4iUi1cTAw5i-123" target="MG_LVtpam4iUi1cTAw5i-148" edge="1">
          <mxGeometry relative="1" as="geometry" />
        </mxCell>
        <mxCell id="MG_LVtpam4iUi1cTAw5i-123" value="nom_tarifa â (apellido,nombre)" style="rounded=0;whiteSpace=wrap;html=1;strokeColor=#d79b00;align=center;verticalAlign=middle;fontFamily=Helvetica;fontSize=12;fillColor=#ffe6cc;strokeWidth=3;" parent="1" vertex="1">
          <mxGeometry x="970" y="6530" width="180" height="60" as="geometry" />
        </mxCell>
        <mxCell id="MG_LVtpam4iUi1cTAw5i-138" style="edgeStyle=orthogonalEdgeStyle;rounded=0;orthogonalLoop=1;jettySize=auto;html=1;fontFamily=Helvetica;fontSize=12;fontColor=default;strokeWidth=3;" parent="1" source="MG_LVtpam4iUi1cTAw5i-136" edge="1">
          <mxGeometry relative="1" as="geometry">
            <mxPoint x="1310" y="6350" as="targetPoint" />
          </mxGeometry>
        </mxCell>
        <mxCell id="MG_LVtpam4iUi1cTAw5i-136" value="importe_tarifa â 9000" style="whiteSpace=wrap;html=1;fillColor=#ffe6cc;strokeColor=#d79b00;rounded=0;strokeWidth=3;" parent="1" vertex="1">
          <mxGeometry x="1220" y="5330" width="180" height="60" as="geometry" />
        </mxCell>
        <mxCell id="MG_LVtpam4iUi1cTAw5i-141" style="edgeStyle=orthogonalEdgeStyle;rounded=0;orthogonalLoop=1;jettySize=auto;html=1;fontFamily=Helvetica;fontSize=12;fontColor=default;strokeWidth=3;" parent="1" source="MG_LVtpam4iUi1cTAw5i-139" edge="1">
          <mxGeometry relative="1" as="geometry">
            <mxPoint x="990" y="6150" as="targetPoint" />
          </mxGeometry>
        </mxCell>
        <mxCell id="MG_LVtpam4iUi1cTAw5i-139" value="importe_tarifa â 15000" style="whiteSpace=wrap;html=1;fillColor=#ffe6cc;strokeColor=#d79b00;strokeWidth=3;" parent="1" vertex="1">
          <mxGeometry x="920" y="5670" width="140" height="60" as="geometry" />
        </mxCell>
        <mxCell id="MG_LVtpam4iUi1cTAw5i-144" style="edgeStyle=orthogonalEdgeStyle;rounded=0;orthogonalLoop=1;jettySize=auto;html=1;fontFamily=Helvetica;fontSize=12;fontColor=default;strokeWidth=3;" parent="1" source="MG_LVtpam4iUi1cTAw5i-142" edge="1">
          <mxGeometry relative="1" as="geometry">
            <mxPoint x="680" y="5900" as="targetPoint" />
          </mxGeometry>
        </mxCell>
        <mxCell id="MG_LVtpam4iUi1cTAw5i-142" value="importe_tarifa â 20000" style="whiteSpace=wrap;html=1;fillColor=#ffe6cc;strokeColor=#d79b00;strokeWidth=3;" parent="1" vertex="1">
          <mxGeometry x="600" y="5780" width="160" height="60" as="geometry" />
        </mxCell>
        <mxCell id="MG_LVtpam4iUi1cTAw5i-147" style="edgeStyle=orthogonalEdgeStyle;rounded=0;orthogonalLoop=1;jettySize=auto;html=1;fontFamily=Helvetica;fontSize=12;fontColor=default;exitX=0.5;exitY=1;exitDx=0;exitDy=0;strokeWidth=3;" parent="1" source="MG_LVtpam4iUi1cTAw5i-145" edge="1">
          <mxGeometry relative="1" as="geometry">
            <mxPoint x="350" y="5900.000000000001" as="targetPoint" />
            <mxPoint x="350" y="5840" as="sourcePoint" />
          </mxGeometry>
        </mxCell>
        <mxCell id="MG_LVtpam4iUi1cTAw5i-145" value="importe_tarifa â 35000" style="whiteSpace=wrap;html=1;fillColor=#ffe6cc;strokeColor=#d79b00;strokeWidth=3;" parent="1" vertex="1">
          <mxGeometry x="270" y="5780" width="160" height="60" as="geometry" />
        </mxCell>
        <mxCell id="MG_LVtpam4iUi1cTAw5i-150" value="V" style="edgeStyle=orthogonalEdgeStyle;rounded=0;orthogonalLoop=1;jettySize=auto;html=1;fontFamily=Helvetica;fontSize=12;fontColor=default;strokeWidth=3;" parent="1" source="MG_LVtpam4iUi1cTAw5i-148" target="MG_LVtpam4iUi1cTAw5i-151" edge="1">
          <mxGeometry relative="1" as="geometry">
            <mxPoint x="1270" y="6829.999999999999" as="targetPoint" />
          </mxGeometry>
        </mxCell>
        <mxCell id="MG_LVtpam4iUi1cTAw5i-157" value="F" style="edgeStyle=orthogonalEdgeStyle;rounded=0;orthogonalLoop=1;jettySize=auto;html=1;fontFamily=Helvetica;fontSize=12;fontColor=default;strokeWidth=3;" parent="1" source="MG_LVtpam4iUi1cTAw5i-148" target="MG_LVtpam4iUi1cTAw5i-156" edge="1">
          <mxGeometry relative="1" as="geometry" />
        </mxCell>
        <mxCell id="MG_LVtpam4iUi1cTAw5i-148" value="clase_vehiculo = camio" style="rhombus;whiteSpace=wrap;html=1;fillColor=#fff2cc;strokeColor=#d6b656;rounded=0;strokeWidth=3;" parent="1" vertex="1">
          <mxGeometry x="980" y="6620" width="160" height="80" as="geometry" />
        </mxCell>
        <mxCell id="MG_LVtpam4iUi1cTAw5i-165" style="edgeStyle=orthogonalEdgeStyle;rounded=0;orthogonalLoop=1;jettySize=auto;html=1;fontFamily=Helvetica;fontSize=12;fontColor=default;strokeWidth=3;" parent="1" source="MG_LVtpam4iUi1cTAw5i-151" edge="1">
          <mxGeometry relative="1" as="geometry">
            <mxPoint x="1280" y="7369.999999999999" as="targetPoint" />
          </mxGeometry>
        </mxCell>
        <mxCell id="MG_LVtpam4iUi1cTAw5i-151" value="importe_tarifa â importe_tarifa*1.5" style="rounded=0;whiteSpace=wrap;html=1;strokeColor=#d79b00;align=center;verticalAlign=middle;fontFamily=Helvetica;fontSize=12;fillColor=#ffe6cc;strokeWidth=3;" parent="1" vertex="1">
          <mxGeometry x="1180" y="6800" width="200" height="60" as="geometry" />
        </mxCell>
        <mxCell id="MG_LVtpam4iUi1cTAw5i-159" value="V" style="edgeStyle=orthogonalEdgeStyle;rounded=0;orthogonalLoop=1;jettySize=auto;html=1;fontFamily=Helvetica;fontSize=12;fontColor=default;strokeWidth=3;" parent="1" source="MG_LVtpam4iUi1cTAw5i-156" target="MG_LVtpam4iUi1cTAw5i-158" edge="1">
          <mxGeometry relative="1" as="geometry" />
        </mxCell>
        <mxCell id="MG_LVtpam4iUi1cTAw5i-161" value="F" style="edgeStyle=orthogonalEdgeStyle;rounded=0;orthogonalLoop=1;jettySize=auto;html=1;fontFamily=Helvetica;fontSize=12;fontColor=default;strokeWidth=3;" parent="1" source="MG_LVtpam4iUi1cTAw5i-156" edge="1">
          <mxGeometry relative="1" as="geometry">
            <mxPoint x="420" y="7220" as="targetPoint" />
            <Array as="points">
              <mxPoint x="420" y="6840" />
              <mxPoint x="420" y="7220" />
            </Array>
          </mxGeometry>
        </mxCell>
        <mxCell id="MG_LVtpam4iUi1cTAw5i-156" value="clase_vehiculo = auto_4_p" style="rhombus;whiteSpace=wrap;html=1;fillColor=#fff2cc;strokeColor=#d6b656;rounded=0;strokeWidth=3;" parent="1" vertex="1">
          <mxGeometry x="575" y="6800" width="160" height="80" as="geometry" />
        </mxCell>
        <mxCell id="MG_LVtpam4iUi1cTAw5i-162" style="edgeStyle=orthogonalEdgeStyle;rounded=0;orthogonalLoop=1;jettySize=auto;html=1;fontFamily=Helvetica;fontSize=12;fontColor=default;strokeWidth=3;" parent="1" source="MG_LVtpam4iUi1cTAw5i-158" edge="1">
          <mxGeometry relative="1" as="geometry">
            <mxPoint x="910" y="7219.999999999999" as="targetPoint" />
          </mxGeometry>
        </mxCell>
        <mxCell id="MG_LVtpam4iUi1cTAw5i-158" value="importe_tarifa â importe_tarifa *1.2" style="whiteSpace=wrap;html=1;fillColor=#ffe6cc;strokeColor=#d79b00;rounded=0;strokeWidth=3;" parent="1" vertex="1">
          <mxGeometry x="800" y="7020" width="220" height="60" as="geometry" />
        </mxCell>
        <mxCell id="MG_LVtpam4iUi1cTAw5i-163" value="" style="endArrow=none;html=1;rounded=0;fontFamily=Helvetica;fontSize=12;fontColor=default;strokeWidth=3;" parent="1" edge="1">
          <mxGeometry width="50" height="50" relative="1" as="geometry">
            <mxPoint x="420" y="7220" as="sourcePoint" />
            <mxPoint x="910" y="7220" as="targetPoint" />
          </mxGeometry>
        </mxCell>
        <mxCell id="MG_LVtpam4iUi1cTAw5i-164" value="" style="endArrow=classic;html=1;rounded=0;fontFamily=Helvetica;fontSize=12;fontColor=default;strokeWidth=3;" parent="1" edge="1">
          <mxGeometry width="50" height="50" relative="1" as="geometry">
            <mxPoint x="650" y="7220" as="sourcePoint" />
            <mxPoint x="650" y="7370" as="targetPoint" />
          </mxGeometry>
        </mxCell>
        <mxCell id="MG_LVtpam4iUi1cTAw5i-166" value="" style="endArrow=none;html=1;rounded=0;fontFamily=Helvetica;fontSize=12;fontColor=default;strokeWidth=3;" parent="1" edge="1">
          <mxGeometry width="50" height="50" relative="1" as="geometry">
            <mxPoint x="650" y="7370" as="sourcePoint" />
            <mxPoint x="1280" y="7370" as="targetPoint" />
          </mxGeometry>
        </mxCell>
        <mxCell id="MG_LVtpam4iUi1cTAw5i-167" value="" style="endArrow=classic;html=1;rounded=0;fontFamily=Helvetica;fontSize=12;fontColor=default;entryX=0.5;entryY=0;entryDx=0;entryDy=0;strokeWidth=3;" parent="1" target="MG_LVtpam4iUi1cTAw5i-168" edge="1">
          <mxGeometry width="50" height="50" relative="1" as="geometry">
            <mxPoint x="940" y="7370" as="sourcePoint" />
            <mxPoint x="940" y="7560" as="targetPoint" />
          </mxGeometry>
        </mxCell>
        <mxCell id="MG_LVtpam4iUi1cTAw5i-171" value="V" style="edgeStyle=orthogonalEdgeStyle;rounded=0;orthogonalLoop=1;jettySize=auto;html=1;exitX=1;exitY=0.5;exitDx=0;exitDy=0;fontFamily=Helvetica;fontSize=12;fontColor=default;strokeWidth=3;" parent="1" source="MG_LVtpam4iUi1cTAw5i-168" target="BEKyneoZ9f7303ZgqTsw-74" edge="1">
          <mxGeometry relative="1" as="geometry">
            <mxPoint x="1180" y="7700" as="targetPoint" />
          </mxGeometry>
        </mxCell>
        <mxCell id="MG_LVtpam4iUi1cTAw5i-175" value="F" style="edgeStyle=orthogonalEdgeStyle;rounded=0;orthogonalLoop=1;jettySize=auto;html=1;exitX=0;exitY=0.5;exitDx=0;exitDy=0;fontFamily=Helvetica;fontSize=12;fontColor=default;strokeWidth=3;" parent="1" source="MG_LVtpam4iUi1cTAw5i-168" edge="1">
          <mxGeometry relative="1" as="geometry">
            <mxPoint x="-390" y="10270" as="targetPoint" />
            <Array as="points">
              <mxPoint x="-390" y="7600" />
            </Array>
          </mxGeometry>
        </mxCell>
        <mxCell id="MG_LVtpam4iUi1cTAw5i-168" value="oficina = bariloche" style="rhombus;whiteSpace=wrap;html=1;strokeColor=#d6b656;align=center;verticalAlign=middle;fontFamily=Helvetica;fontSize=12;fontColor=default;fillColor=#fff2cc;strokeWidth=3;" parent="1" vertex="1">
          <mxGeometry x="870" y="7560" width="140" height="80" as="geometry" />
        </mxCell>
        <mxCell id="MG_LVtpam4iUi1cTAw5i-174" value="" style="edgeStyle=orthogonalEdgeStyle;rounded=0;orthogonalLoop=1;jettySize=auto;html=1;fontFamily=Helvetica;fontSize=12;fontColor=default;strokeWidth=3;" parent="1" source="MG_LVtpam4iUi1cTAw5i-172" target="MG_LVtpam4iUi1cTAw5i-173" edge="1">
          <mxGeometry relative="1" as="geometry" />
        </mxCell>
        <mxCell id="MG_LVtpam4iUi1cTAw5i-172" value="temp_alta" style="shape=parallelogram;perimeter=parallelogramPerimeter;whiteSpace=wrap;html=1;fixedSize=1;strokeColor=#82b366;align=center;verticalAlign=middle;fontFamily=Helvetica;fontSize=12;fillColor=#d5e8d4;strokeWidth=3;" parent="1" vertex="1">
          <mxGeometry x="1120" y="7790.000000000001" width="120" height="60" as="geometry" />
        </mxCell>
        <mxCell id="MG_LVtpam4iUi1cTAw5i-178" value="F" style="edgeStyle=orthogonalEdgeStyle;rounded=0;orthogonalLoop=1;jettySize=auto;html=1;fontFamily=Helvetica;fontSize=12;fontColor=default;strokeWidth=3;" parent="1" source="MG_LVtpam4iUi1cTAw5i-173" edge="1">
          <mxGeometry relative="1" as="geometry">
            <mxPoint x="980" y="8300" as="targetPoint" />
          </mxGeometry>
        </mxCell>
        <mxCell id="MG_LVtpam4iUi1cTAw5i-181" value="V" style="edgeStyle=orthogonalEdgeStyle;rounded=0;orthogonalLoop=1;jettySize=auto;html=1;fontFamily=Helvetica;fontSize=12;fontColor=default;strokeWidth=3;" parent="1" source="MG_LVtpam4iUi1cTAw5i-173" target="BEKyneoZ9f7303ZgqTsw-64" edge="1">
          <mxGeometry relative="1" as="geometry">
            <mxPoint x="1445" y="8050" as="targetPoint" />
          </mxGeometry>
        </mxCell>
        <mxCell id="MG_LVtpam4iUi1cTAw5i-173" value="temp_alta = verdadero" style="rhombus;whiteSpace=wrap;html=1;fillColor=#fff2cc;strokeColor=#d6b656;strokeWidth=3;" parent="1" vertex="1">
          <mxGeometry x="1100" y="7920" width="160" height="80" as="geometry" />
        </mxCell>
        <mxCell id="MG_LVtpam4iUi1cTAw5i-183" style="edgeStyle=orthogonalEdgeStyle;rounded=0;orthogonalLoop=1;jettySize=auto;html=1;exitX=0.5;exitY=1;exitDx=0;exitDy=0;fontFamily=Helvetica;fontSize=12;fontColor=default;strokeWidth=3;" parent="1" source="MG_LVtpam4iUi1cTAw5i-177" edge="1">
          <mxGeometry relative="1" as="geometry">
            <mxPoint x="1444.8571428571427" y="8300" as="targetPoint" />
          </mxGeometry>
        </mxCell>
        <mxCell id="MG_LVtpam4iUi1cTAw5i-177" value="importe_tarifa â importe_tarifa *recargo_temp" style="rounded=0;whiteSpace=wrap;html=1;strokeColor=#d79b00;align=center;verticalAlign=middle;fontFamily=Helvetica;fontSize=12;fillColor=#ffe6cc;strokeWidth=3;" parent="1" vertex="1">
          <mxGeometry x="1310" y="8130" width="270" height="60" as="geometry" />
        </mxCell>
        <mxCell id="MG_LVtpam4iUi1cTAw5i-180" value="" style="endArrow=none;html=1;rounded=0;fontFamily=Helvetica;fontSize=12;fontColor=default;strokeWidth=3;" parent="1" edge="1">
          <mxGeometry width="50" height="50" relative="1" as="geometry">
            <mxPoint x="980" y="8300" as="sourcePoint" />
            <mxPoint x="1440" y="8300" as="targetPoint" />
          </mxGeometry>
        </mxCell>
        <mxCell id="MG_LVtpam4iUi1cTAw5i-184" value="" style="endArrow=classic;html=1;rounded=0;fontFamily=Helvetica;fontSize=12;fontColor=default;strokeWidth=3;" parent="1" target="BEKyneoZ9f7303ZgqTsw-72" edge="1">
          <mxGeometry width="50" height="50" relative="1" as="geometry">
            <mxPoint x="1179" y="8300" as="sourcePoint" />
            <mxPoint x="1179" y="8380" as="targetPoint" />
          </mxGeometry>
        </mxCell>
        <mxCell id="MG_LVtpam4iUi1cTAw5i-186" style="edgeStyle=orthogonalEdgeStyle;rounded=0;orthogonalLoop=1;jettySize=auto;html=1;fontFamily=Helvetica;fontSize=12;fontColor=default;strokeWidth=3;" parent="1" source="MG_LVtpam4iUi1cTAw5i-185" target="MG_LVtpam4iUi1cTAw5i-187" edge="1">
          <mxGeometry relative="1" as="geometry">
            <mxPoint x="1450" y="8680" as="targetPoint" />
          </mxGeometry>
        </mxCell>
        <mxCell id="MG_LVtpam4iUi1cTAw5i-185" value="zona" style="shape=parallelogram;perimeter=parallelogramPerimeter;whiteSpace=wrap;html=1;fixedSize=1;strokeColor=#82b366;align=center;verticalAlign=middle;fontFamily=Helvetica;fontSize=12;fillColor=#d5e8d4;strokeWidth=3;" parent="1" vertex="1">
          <mxGeometry x="1119" y="8460" width="120" height="60" as="geometry" />
        </mxCell>
        <mxCell id="MG_LVtpam4iUi1cTAw5i-189" value="V" style="edgeStyle=orthogonalEdgeStyle;rounded=0;orthogonalLoop=1;jettySize=auto;html=1;fontFamily=Helvetica;fontSize=12;fontColor=default;strokeWidth=3;" parent="1" source="MG_LVtpam4iUi1cTAw5i-187" target="BEKyneoZ9f7303ZgqTsw-66" edge="1">
          <mxGeometry relative="1" as="geometry">
            <mxPoint x="1415" y="8810" as="targetPoint" />
          </mxGeometry>
        </mxCell>
        <mxCell id="MG_LVtpam4iUi1cTAw5i-191" value="F" style="edgeStyle=orthogonalEdgeStyle;rounded=0;orthogonalLoop=1;jettySize=auto;html=1;fontFamily=Helvetica;fontSize=12;fontColor=default;strokeWidth=3;" parent="1" source="MG_LVtpam4iUi1cTAw5i-187" target="MG_LVtpam4iUi1cTAw5i-190" edge="1">
          <mxGeometry relative="1" as="geometry" />
        </mxCell>
        <mxCell id="MG_LVtpam4iUi1cTAw5i-187" value="zona = c_chico" style="rhombus;whiteSpace=wrap;html=1;strokeColor=#d6b656;align=center;verticalAlign=middle;fontFamily=Helvetica;fontSize=12;fontColor=default;fillColor=#fff2cc;strokeWidth=3;" parent="1" vertex="1">
          <mxGeometry x="1095" y="8700" width="170" height="80" as="geometry" />
        </mxCell>
        <mxCell id="MG_LVtpam4iUi1cTAw5i-205" style="edgeStyle=orthogonalEdgeStyle;rounded=0;orthogonalLoop=1;jettySize=auto;html=1;fontFamily=Helvetica;fontSize=12;fontColor=default;strokeWidth=3;" parent="1" source="MG_LVtpam4iUi1cTAw5i-188" edge="1">
          <mxGeometry relative="1" as="geometry">
            <mxPoint x="1400" y="9880" as="targetPoint" />
            <Array as="points">
              <mxPoint x="1400" y="9210" />
              <mxPoint x="1400" y="9210" />
            </Array>
          </mxGeometry>
        </mxCell>
        <mxCell id="MG_LVtpam4iUi1cTAw5i-188" value="importe_tarifa â importe_tarifa*recargo_zona" style="whiteSpace=wrap;html=1;fillColor=#ffe6cc;strokeColor=#d79b00;strokeWidth=3;" parent="1" vertex="1">
          <mxGeometry x="1280" y="8930" width="260" height="60" as="geometry" />
        </mxCell>
        <mxCell id="MG_LVtpam4iUi1cTAw5i-193" value="V" style="edgeStyle=orthogonalEdgeStyle;rounded=0;orthogonalLoop=1;jettySize=auto;html=1;fontFamily=Helvetica;fontSize=12;fontColor=default;entryX=0.5;entryY=0;entryDx=0;entryDy=0;strokeWidth=3;" parent="1" source="MG_LVtpam4iUi1cTAw5i-190" target="BEKyneoZ9f7303ZgqTsw-68" edge="1">
          <mxGeometry relative="1" as="geometry">
            <mxPoint x="1040" y="9100" as="targetPoint" />
          </mxGeometry>
        </mxCell>
        <mxCell id="MG_LVtpam4iUi1cTAw5i-194" value="F" style="edgeStyle=orthogonalEdgeStyle;rounded=0;orthogonalLoop=1;jettySize=auto;html=1;fontFamily=Helvetica;fontSize=12;fontColor=default;strokeWidth=3;" parent="1" source="MG_LVtpam4iUi1cTAw5i-190" target="MG_LVtpam4iUi1cTAw5i-196" edge="1">
          <mxGeometry relative="1" as="geometry">
            <mxPoint x="420" y="9030" as="targetPoint" />
          </mxGeometry>
        </mxCell>
        <mxCell id="MG_LVtpam4iUi1cTAw5i-190" value="zona = c_catedral" style="rhombus;whiteSpace=wrap;html=1;strokeColor=#d6b656;align=center;verticalAlign=middle;fontFamily=Helvetica;fontSize=12;fontColor=default;fillColor=#fff2cc;strokeWidth=3;" parent="1" vertex="1">
          <mxGeometry x="680" y="8880" width="170" height="80" as="geometry" />
        </mxCell>
        <mxCell id="MG_LVtpam4iUi1cTAw5i-203" style="edgeStyle=orthogonalEdgeStyle;rounded=0;orthogonalLoop=1;jettySize=auto;html=1;fontFamily=Helvetica;fontSize=12;fontColor=default;strokeWidth=3;" parent="1" source="MG_LVtpam4iUi1cTAw5i-192" edge="1">
          <mxGeometry relative="1" as="geometry">
            <mxPoint x="1040" y="9619.999999999998" as="targetPoint" />
          </mxGeometry>
        </mxCell>
        <mxCell id="MG_LVtpam4iUi1cTAw5i-192" value="importe_tarifa â importe_tarifa*recargo_zona" style="whiteSpace=wrap;html=1;fillColor=#ffe6cc;strokeColor=#d79b00;strokeWidth=3;" parent="1" vertex="1">
          <mxGeometry x="910" y="9290" width="260" height="60" as="geometry" />
        </mxCell>
        <mxCell id="MG_LVtpam4iUi1cTAw5i-198" value="" style="edgeStyle=orthogonalEdgeStyle;rounded=0;orthogonalLoop=1;jettySize=auto;html=1;fontFamily=Helvetica;fontSize=12;fontColor=default;exitX=0.5;exitY=1;exitDx=0;exitDy=0;strokeWidth=3;" parent="1" source="BEKyneoZ9f7303ZgqTsw-70" target="MG_LVtpam4iUi1cTAw5i-197" edge="1">
          <mxGeometry relative="1" as="geometry">
            <mxPoint x="530" y="9280" as="sourcePoint" />
          </mxGeometry>
        </mxCell>
        <mxCell id="MG_LVtpam4iUi1cTAw5i-199" value="F" style="edgeStyle=orthogonalEdgeStyle;rounded=0;orthogonalLoop=1;jettySize=auto;html=1;fontFamily=Helvetica;fontSize=12;fontColor=default;strokeWidth=3;" parent="1" source="MG_LVtpam4iUi1cTAw5i-196" edge="1">
          <mxGeometry relative="1" as="geometry">
            <mxPoint x="180" y="10190" as="targetPoint" />
            <Array as="points">
              <mxPoint x="180" y="9060" />
            </Array>
          </mxGeometry>
        </mxCell>
        <mxCell id="BEKyneoZ9f7303ZgqTsw-71" style="edgeStyle=orthogonalEdgeStyle;rounded=0;orthogonalLoop=1;jettySize=auto;html=1;exitX=0.5;exitY=1;exitDx=0;exitDy=0;entryX=0.5;entryY=0;entryDx=0;entryDy=0;strokeWidth=3;" parent="1" source="MG_LVtpam4iUi1cTAw5i-196" target="BEKyneoZ9f7303ZgqTsw-70" edge="1">
          <mxGeometry relative="1" as="geometry" />
        </mxCell>
        <mxCell id="BEKyneoZ9f7303ZgqTsw-163" value="V" style="edgeLabel;html=1;align=center;verticalAlign=middle;resizable=0;points=[];" parent="BEKyneoZ9f7303ZgqTsw-71" vertex="1" connectable="0">
          <mxGeometry x="-0.3611" y="1" relative="1" as="geometry">
            <mxPoint as="offset" />
          </mxGeometry>
        </mxCell>
        <mxCell id="MG_LVtpam4iUi1cTAw5i-196" value="zona = ruta_40" style="rhombus;whiteSpace=wrap;html=1;strokeColor=#d6b656;align=center;verticalAlign=middle;fontFamily=Helvetica;fontSize=12;fontColor=default;fillColor=#fff2cc;strokeWidth=3;" parent="1" vertex="1">
          <mxGeometry x="450" y="9020" width="160" height="80" as="geometry" />
        </mxCell>
        <mxCell id="MG_LVtpam4iUi1cTAw5i-200" style="edgeStyle=orthogonalEdgeStyle;rounded=0;orthogonalLoop=1;jettySize=auto;html=1;fontFamily=Helvetica;fontSize=12;fontColor=default;exitX=0.5;exitY=1;exitDx=0;exitDy=0;strokeWidth=3;" parent="1" source="MG_LVtpam4iUi1cTAw5i-197" edge="1">
          <mxGeometry relative="1" as="geometry">
            <mxPoint x="530" y="9620" as="targetPoint" />
            <Array as="points">
              <mxPoint x="530" y="9610" />
            </Array>
          </mxGeometry>
        </mxCell>
        <mxCell id="MG_LVtpam4iUi1cTAw5i-197" value="importe_tarifa â importe_tarifa*recargo_zona" style="whiteSpace=wrap;html=1;fillColor=#ffe6cc;strokeColor=#d79b00;strokeWidth=3;" parent="1" vertex="1">
          <mxGeometry x="380" y="9420" width="300" height="60" as="geometry" />
        </mxCell>
        <mxCell id="MG_LVtpam4iUi1cTAw5i-204" value="" style="endArrow=none;html=1;rounded=0;fontFamily=Helvetica;fontSize=12;fontColor=default;strokeWidth=3;" parent="1" edge="1">
          <mxGeometry width="50" height="50" relative="1" as="geometry">
            <mxPoint x="530" y="9620" as="sourcePoint" />
            <mxPoint x="1040" y="9620" as="targetPoint" />
          </mxGeometry>
        </mxCell>
        <mxCell id="MG_LVtpam4iUi1cTAw5i-206" value="" style="endArrow=classic;html=1;rounded=0;fontFamily=Helvetica;fontSize=12;fontColor=default;strokeWidth=3;" parent="1" edge="1">
          <mxGeometry width="50" height="50" relative="1" as="geometry">
            <mxPoint x="700" y="9620" as="sourcePoint" />
            <mxPoint x="700" y="9880" as="targetPoint" />
          </mxGeometry>
        </mxCell>
        <mxCell id="MG_LVtpam4iUi1cTAw5i-207" value="" style="endArrow=none;html=1;rounded=0;fontFamily=Helvetica;fontSize=12;fontColor=default;strokeWidth=3;" parent="1" edge="1">
          <mxGeometry width="50" height="50" relative="1" as="geometry">
            <mxPoint x="700" y="9880" as="sourcePoint" />
            <mxPoint x="1400" y="9880" as="targetPoint" />
          </mxGeometry>
        </mxCell>
        <mxCell id="MG_LVtpam4iUi1cTAw5i-211" value="" style="edgeStyle=orthogonalEdgeStyle;rounded=0;orthogonalLoop=1;jettySize=auto;html=1;fontFamily=Helvetica;fontSize=12;fontColor=default;strokeWidth=3;" parent="1" edge="1">
          <mxGeometry relative="1" as="geometry">
            <mxPoint x="1020" y="10190" as="targetPoint" />
            <mxPoint x="1020" y="9880" as="sourcePoint" />
          </mxGeometry>
        </mxCell>
        <mxCell id="MG_LVtpam4iUi1cTAw5i-220" value="" style="endArrow=none;html=1;rounded=0;fontFamily=Helvetica;fontSize=12;fontColor=default;strokeWidth=3;" parent="1" edge="1">
          <mxGeometry width="50" height="50" relative="1" as="geometry">
            <mxPoint x="-390" y="10270" as="sourcePoint" />
            <mxPoint x="670" y="10270" as="targetPoint" />
          </mxGeometry>
        </mxCell>
        <mxCell id="MG_LVtpam4iUi1cTAw5i-227" value="" style="endArrow=classic;html=1;rounded=0;fontFamily=Helvetica;fontSize=12;fontColor=default;strokeWidth=3;" parent="1" target="BEKyneoZ9f7303ZgqTsw-13" edge="1">
          <mxGeometry width="50" height="50" relative="1" as="geometry">
            <mxPoint x="340" y="10270" as="sourcePoint" />
            <mxPoint x="340" y="10420" as="targetPoint" />
          </mxGeometry>
        </mxCell>
        <mxCell id="BEKyneoZ9f7303ZgqTsw-12" value="" style="edgeStyle=orthogonalEdgeStyle;rounded=0;orthogonalLoop=1;jettySize=auto;html=1;strokeWidth=3;" parent="1" source="MG_LVtpam4iUi1cTAw5i-228" target="BEKyneoZ9f7303ZgqTsw-11" edge="1">
          <mxGeometry relative="1" as="geometry" />
        </mxCell>
        <mxCell id="MG_LVtpam4iUi1cTAw5i-228" value="importe_tarifa â (importe_tarifa + importe_seg +importe_tierra_nieve) * (1-descuento_vip)" style="rounded=0;whiteSpace=wrap;html=1;strokeColor=#d79b00;align=center;verticalAlign=middle;fontFamily=Helvetica;fontSize=12;fillColor=#ffe6cc;strokeWidth=3;" parent="1" vertex="1">
          <mxGeometry x="50.5" y="10870" width="579" height="60" as="geometry" />
        </mxCell>
        <mxCell id="MG_LVtpam4iUi1cTAw5i-231" style="edgeStyle=orthogonalEdgeStyle;rounded=0;orthogonalLoop=1;jettySize=auto;html=1;fontFamily=Helvetica;fontSize=12;fontColor=default;strokeWidth=3;" parent="1" source="MG_LVtpam4iUi1cTAw5i-230" target="MG_LVtpam4iUi1cTAw5i-232" edge="1">
          <mxGeometry relative="1" as="geometry">
            <mxPoint x="830.0035294117642" y="2360" as="targetPoint" />
          </mxGeometry>
        </mxCell>
        <mxCell id="MG_LVtpam4iUi1cTAw5i-230" value="permiso" style="shape=parallelogram;perimeter=parallelogramPerimeter;whiteSpace=wrap;html=1;fixedSize=1;strokeColor=#82b366;align=center;verticalAlign=middle;fontFamily=Helvetica;fontSize=12;fillColor=#d5e8d4;strokeWidth=3;" parent="1" vertex="1">
          <mxGeometry x="770.0035294117648" y="2140" width="120" height="60" as="geometry" />
        </mxCell>
        <mxCell id="BEKyneoZ9f7303ZgqTsw-140" value="V" style="edgeStyle=orthogonalEdgeStyle;rounded=0;orthogonalLoop=1;jettySize=auto;html=1;exitX=1;exitY=0.5;exitDx=0;exitDy=0;entryX=0.5;entryY=0;entryDx=0;entryDy=0;strokeWidth=3;" parent="1" source="MG_LVtpam4iUi1cTAw5i-232" target="BEKyneoZ9f7303ZgqTsw-137" edge="1">
          <mxGeometry relative="1" as="geometry" />
        </mxCell>
        <mxCell id="BEKyneoZ9f7303ZgqTsw-143" value="F" style="edgeStyle=orthogonalEdgeStyle;rounded=0;orthogonalLoop=1;jettySize=auto;html=1;exitX=0;exitY=0.5;exitDx=0;exitDy=0;strokeWidth=3;" parent="1" source="MG_LVtpam4iUi1cTAw5i-232" edge="1">
          <mxGeometry relative="1" as="geometry">
            <mxPoint x="670" y="2500" as="targetPoint" />
          </mxGeometry>
        </mxCell>
        <mxCell id="MG_LVtpam4iUi1cTAw5i-232" value="permiso = verdadero" style="rhombus;whiteSpace=wrap;html=1;strokeColor=#d6b656;align=center;verticalAlign=middle;fontFamily=Helvetica;fontSize=12;fontColor=default;fillColor=#fff2cc;strokeWidth=3;" parent="1" vertex="1">
          <mxGeometry x="750" y="2290" width="160" height="80" as="geometry" />
        </mxCell>
        <mxCell id="MG_LVtpam4iUi1cTAw5i-236" value="" style="edgeStyle=orthogonalEdgeStyle;rounded=0;orthogonalLoop=1;jettySize=auto;html=1;fontFamily=Helvetica;fontSize=12;fontColor=default;strokeWidth=3;" parent="1" source="MG_LVtpam4iUi1cTAw5i-234" target="MG_LVtpam4iUi1cTAw5i-235" edge="1">
          <mxGeometry relative="1" as="geometry" />
        </mxCell>
        <mxCell id="MG_LVtpam4iUi1cTAw5i-234" value="licencia_int" style="shape=parallelogram;perimeter=parallelogramPerimeter;whiteSpace=wrap;html=1;fixedSize=1;strokeColor=#82b366;align=center;verticalAlign=middle;fontFamily=Helvetica;fontSize=12;fillColor=#d5e8d4;strokeWidth=3;" parent="1" vertex="1">
          <mxGeometry x="1180" y="2220" width="120" height="60" as="geometry" />
        </mxCell>
        <mxCell id="BEKyneoZ9f7303ZgqTsw-139" value="V" style="edgeStyle=orthogonalEdgeStyle;rounded=0;orthogonalLoop=1;jettySize=auto;html=1;exitX=1;exitY=0.5;exitDx=0;exitDy=0;entryX=0.5;entryY=0;entryDx=0;entryDy=0;strokeWidth=3;" parent="1" source="MG_LVtpam4iUi1cTAw5i-235" target="BEKyneoZ9f7303ZgqTsw-138" edge="1">
          <mxGeometry relative="1" as="geometry" />
        </mxCell>
        <mxCell id="BEKyneoZ9f7303ZgqTsw-141" value="F" style="edgeStyle=orthogonalEdgeStyle;rounded=0;orthogonalLoop=1;jettySize=auto;html=1;exitX=0;exitY=0.5;exitDx=0;exitDy=0;strokeWidth=3;" parent="1" source="MG_LVtpam4iUi1cTAw5i-235" edge="1">
          <mxGeometry relative="1" as="geometry">
            <mxPoint x="1120" y="2510" as="targetPoint" />
          </mxGeometry>
        </mxCell>
        <mxCell id="MG_LVtpam4iUi1cTAw5i-235" value="licencia_int = verdadero" style="rhombus;whiteSpace=wrap;html=1;fillColor=#fff2cc;strokeColor=#d6b656;strokeWidth=3;" parent="1" vertex="1">
          <mxGeometry x="1160" y="2350" width="160" height="80" as="geometry" />
        </mxCell>
        <mxCell id="MG_LVtpam4iUi1cTAw5i-245" value="" style="endArrow=classic;html=1;rounded=0;fontFamily=Helvetica;fontSize=12;fontColor=default;entryX=0.5;entryY=0;entryDx=0;entryDy=0;strokeWidth=3;" parent="1" target="MG_LVtpam4iUi1cTAw5i-15" edge="1">
          <mxGeometry width="50" height="50" relative="1" as="geometry">
            <mxPoint x="-820" y="3070" as="sourcePoint" />
            <mxPoint x="-470" y="3180" as="targetPoint" />
          </mxGeometry>
        </mxCell>
        <mxCell id="BEKyneoZ9f7303ZgqTsw-3" value="" style="endArrow=none;html=1;rounded=0;strokeWidth=3;" parent="1" edge="1">
          <mxGeometry width="50" height="50" relative="1" as="geometry">
            <mxPoint x="-1060" y="2960" as="sourcePoint" />
            <mxPoint x="-440" y="2960" as="targetPoint" />
          </mxGeometry>
        </mxCell>
        <mxCell id="BEKyneoZ9f7303ZgqTsw-7" value="V" style="endArrow=classic;html=1;rounded=0;entryX=0.5;entryY=0;entryDx=0;entryDy=0;exitX=0.5;exitY=1;exitDx=0;exitDy=0;strokeWidth=3;" parent="1" source="BEKyneoZ9f7303ZgqTsw-151" target="BEKyneoZ9f7303ZgqTsw-22" edge="1">
          <mxGeometry width="50" height="50" relative="1" as="geometry">
            <mxPoint x="1080" y="2810" as="sourcePoint" />
            <mxPoint x="1080" y="2790" as="targetPoint" />
          </mxGeometry>
        </mxCell>
        <mxCell id="BEKyneoZ9f7303ZgqTsw-9" value="vip" style="shape=parallelogram;perimeter=parallelogramPerimeter;whiteSpace=wrap;html=1;fixedSize=1;fillColor=#d5e8d4;strokeColor=#82b366;strokeWidth=3;" parent="1" vertex="1">
          <mxGeometry x="1020" y="3089.9999999999995" width="120" height="60" as="geometry" />
        </mxCell>
        <mxCell id="BEKyneoZ9f7303ZgqTsw-52" value="" style="edgeStyle=orthogonalEdgeStyle;rounded=0;orthogonalLoop=1;jettySize=auto;html=1;strokeWidth=3;" parent="1" source="BEKyneoZ9f7303ZgqTsw-11" target="BEKyneoZ9f7303ZgqTsw-51" edge="1">
          <mxGeometry relative="1" as="geometry" />
        </mxCell>
        <mxCell id="BEKyneoZ9f7303ZgqTsw-11" value="tarifa&amp;nbsp; (cod_tarifa,nom_tarifa,tipo_tarifa,importe_tarifa,oficina)" style="whiteSpace=wrap;html=1;fillColor=#ffe6cc;strokeColor=#d79b00;rounded=0;strokeWidth=3;" parent="1" vertex="1">
          <mxGeometry x="160" y="10980" width="360" height="60" as="geometry" />
        </mxCell>
        <mxCell id="BEKyneoZ9f7303ZgqTsw-14" style="edgeStyle=orthogonalEdgeStyle;rounded=0;orthogonalLoop=1;jettySize=auto;html=1;entryX=0.5;entryY=0;entryDx=0;entryDy=0;strokeWidth=3;" parent="1" target="MG_LVtpam4iUi1cTAw5i-228" edge="1">
          <mxGeometry relative="1" as="geometry">
            <mxPoint x="340" y="10820" as="sourcePoint" />
          </mxGeometry>
        </mxCell>
        <mxCell id="BEKyneoZ9f7303ZgqTsw-45" value="" style="edgeStyle=orthogonalEdgeStyle;rounded=0;orthogonalLoop=1;jettySize=auto;html=1;exitX=0.5;exitY=1;exitDx=0;exitDy=0;strokeWidth=3;" parent="1" source="BEKyneoZ9f7303ZgqTsw-53" target="TMSowg6UPwNqHrCHGSPX-1" edge="1">
          <mxGeometry relative="1" as="geometry">
            <mxPoint x="340" y="10480" as="sourcePoint" />
            <mxPoint x="340" y="10530" as="targetPoint" />
          </mxGeometry>
        </mxCell>
        <mxCell id="BEKyneoZ9f7303ZgqTsw-54" value="" style="edgeStyle=orthogonalEdgeStyle;rounded=0;orthogonalLoop=1;jettySize=auto;html=1;strokeWidth=3;" parent="1" source="BEKyneoZ9f7303ZgqTsw-13" target="BEKyneoZ9f7303ZgqTsw-53" edge="1">
          <mxGeometry relative="1" as="geometry" />
        </mxCell>
        <mxCell id="BEKyneoZ9f7303ZgqTsw-13" value="seguro_CNS â (cod_seg,(apellido,nombre),importe_seg)" style="rounded=0;whiteSpace=wrap;html=1;fillColor=#ffe6cc;strokeColor=#d79b00;strokeWidth=3;" parent="1" vertex="1">
          <mxGeometry x="80" y="10320" width="520" height="60" as="geometry" />
        </mxCell>
        <mxCell id="BEKyneoZ9f7303ZgqTsw-16" value="" style="endArrow=none;html=1;rounded=0;strokeWidth=3;" parent="1" edge="1">
          <mxGeometry width="50" height="50" relative="1" as="geometry">
            <mxPoint x="180" y="10190" as="sourcePoint" />
            <mxPoint x="1020" y="10190" as="targetPoint" />
          </mxGeometry>
        </mxCell>
        <mxCell id="BEKyneoZ9f7303ZgqTsw-17" value="" style="endArrow=classic;html=1;rounded=0;strokeWidth=3;" parent="1" edge="1">
          <mxGeometry width="50" height="50" relative="1" as="geometry">
            <mxPoint x="670" y="10190" as="sourcePoint" />
            <mxPoint x="670" y="10270" as="targetPoint" />
          </mxGeometry>
        </mxCell>
        <mxCell id="BEKyneoZ9f7303ZgqTsw-19" style="edgeStyle=orthogonalEdgeStyle;rounded=0;orthogonalLoop=1;jettySize=auto;html=1;entryX=0.5;entryY=0;entryDx=0;entryDy=0;strokeWidth=3;" parent="1" target="MG_LVtpam4iUi1cTAw5i-68" edge="1">
          <mxGeometry relative="1" as="geometry">
            <mxPoint x="1080" y="3630" as="sourcePoint" />
          </mxGeometry>
        </mxCell>
        <mxCell id="BEKyneoZ9f7303ZgqTsw-21" style="edgeStyle=orthogonalEdgeStyle;rounded=0;orthogonalLoop=1;jettySize=auto;html=1;entryX=0.5;entryY=0;entryDx=0;entryDy=0;strokeWidth=3;" parent="1" target="MG_LVtpam4iUi1cTAw5i-37" edge="1">
          <mxGeometry relative="1" as="geometry">
            <mxPoint x="1080" y="1750" as="sourcePoint" />
          </mxGeometry>
        </mxCell>
        <mxCell id="BEKyneoZ9f7303ZgqTsw-25" style="edgeStyle=orthogonalEdgeStyle;rounded=0;orthogonalLoop=1;jettySize=auto;html=1;entryX=0.5;entryY=0;entryDx=0;entryDy=0;strokeWidth=3;" parent="1" source="BEKyneoZ9f7303ZgqTsw-22" target="BEKyneoZ9f7303ZgqTsw-24" edge="1">
          <mxGeometry relative="1" as="geometry" />
        </mxCell>
        <mxCell id="BEKyneoZ9f7303ZgqTsw-22" value="datos_basicos = [nombre,apellido,dni,tel,dom,empresa,tel_lab,dom_lab,turista]" style="rounded=0;whiteSpace=wrap;html=1;fillColor=#ffe6cc;strokeColor=#d79b00;strokeWidth=3;" parent="1" vertex="1">
          <mxGeometry x="860" y="2800" width="440" height="60" as="geometry" />
        </mxCell>
        <mxCell id="BEKyneoZ9f7303ZgqTsw-24" value="cliente = [datos_basicos]" style="rounded=0;whiteSpace=wrap;html=1;fillColor=#ffe6cc;strokeColor=#d79b00;strokeWidth=3;" parent="1" vertex="1">
          <mxGeometry x="860" y="2910" width="440" height="60" as="geometry" />
        </mxCell>
        <mxCell id="BEKyneoZ9f7303ZgqTsw-28" style="edgeStyle=orthogonalEdgeStyle;rounded=0;orthogonalLoop=1;jettySize=auto;html=1;strokeWidth=3;" parent="1" source="BEKyneoZ9f7303ZgqTsw-27" edge="1">
          <mxGeometry relative="1" as="geometry">
            <mxPoint x="1270" y="3630" as="targetPoint" />
          </mxGeometry>
        </mxCell>
        <mxCell id="BEKyneoZ9f7303ZgqTsw-27" value="cliente = [datos_basicos, tarjeta]" style="rounded=0;whiteSpace=wrap;html=1;fillColor=#ffe6cc;strokeColor=#d79b00;strokeWidth=3;" parent="1" vertex="1">
          <mxGeometry x="1160" y="3550" width="220" height="60" as="geometry" />
        </mxCell>
        <mxCell id="BEKyneoZ9f7303ZgqTsw-30" style="edgeStyle=orthogonalEdgeStyle;rounded=0;orthogonalLoop=1;jettySize=auto;html=1;strokeWidth=3;" parent="1" source="BEKyneoZ9f7303ZgqTsw-29" edge="1">
          <mxGeometry relative="1" as="geometry">
            <mxPoint x="900" y="3630" as="targetPoint" />
          </mxGeometry>
        </mxCell>
        <mxCell id="BEKyneoZ9f7303ZgqTsw-29" value="cliente = [datos_basicos, (medio_contacto, forma_pago)]" style="rounded=0;whiteSpace=wrap;html=1;fillColor=#ffe6cc;strokeColor=#d79b00;strokeWidth=3;" parent="1" vertex="1">
          <mxGeometry x="740" y="3520" width="320" height="60" as="geometry" />
        </mxCell>
        <mxCell id="BEKyneoZ9f7303ZgqTsw-32" value="vehiculo = (id_vehiculo,nro_chasis,tipo_motor,clase_vehiculo)" style="rounded=0;whiteSpace=wrap;html=1;fillColor=#ffe6cc;strokeColor=#d79b00;strokeWidth=3;" parent="1" vertex="1">
          <mxGeometry x="900" y="4080" width="360" height="60" as="geometry" />
        </mxCell>
        <mxCell id="BEKyneoZ9f7303ZgqTsw-37" style="edgeStyle=orthogonalEdgeStyle;rounded=0;orthogonalLoop=1;jettySize=auto;html=1;exitX=0.5;exitY=1;exitDx=0;exitDy=0;strokeWidth=3;" parent="1" source="BEKyneoZ9f7303ZgqTsw-33" target="BEKyneoZ9f7303ZgqTsw-40" edge="1">
          <mxGeometry relative="1" as="geometry">
            <mxPoint x="1294.8571428571431" y="4850" as="targetPoint" />
          </mxGeometry>
        </mxCell>
        <mxCell id="BEKyneoZ9f7303ZgqTsw-33" value="atr_esp â&amp;nbsp;&amp;nbsp;(4x4,eq_inv,permiso_mun)" style="whiteSpace=wrap;html=1;fillColor=#ffe6cc;strokeColor=#d79b00;rounded=0;strokeWidth=3;" parent="1" vertex="1">
          <mxGeometry x="1180" y="4730" width="230" height="60" as="geometry" />
        </mxCell>
        <mxCell id="BEKyneoZ9f7303ZgqTsw-39" value="" style="edgeStyle=orthogonalEdgeStyle;rounded=0;orthogonalLoop=1;jettySize=auto;html=1;strokeWidth=3;" parent="1" source="BEKyneoZ9f7303ZgqTsw-35" target="BEKyneoZ9f7303ZgqTsw-38" edge="1">
          <mxGeometry relative="1" as="geometry" />
        </mxCell>
        <mxCell id="BEKyneoZ9f7303ZgqTsw-35" value="cadenas â&amp;nbsp;V/F" style="whiteSpace=wrap;html=1;fillColor=#ffe6cc;strokeColor=#d79b00;rounded=0;strokeWidth=3;" parent="1" vertex="1">
          <mxGeometry x="1234.9999999999995" y="4385" width="120" height="60" as="geometry" />
        </mxCell>
        <mxCell id="BEKyneoZ9f7303ZgqTsw-38" value="neum_esp â&amp;nbsp;V/F" style="whiteSpace=wrap;html=1;fillColor=#ffe6cc;strokeColor=#d79b00;rounded=0;strokeWidth=3;" parent="1" vertex="1">
          <mxGeometry x="1234.9999999999995" y="4470" width="120" height="60" as="geometry" />
        </mxCell>
        <mxCell id="BEKyneoZ9f7303ZgqTsw-41" style="edgeStyle=orthogonalEdgeStyle;rounded=0;orthogonalLoop=1;jettySize=auto;html=1;exitX=0.5;exitY=1;exitDx=0;exitDy=0;strokeWidth=3;" parent="1" source="BEKyneoZ9f7303ZgqTsw-40" edge="1">
          <mxGeometry relative="1" as="geometry">
            <mxPoint x="1295.666666666667" y="4910" as="targetPoint" />
          </mxGeometry>
        </mxCell>
        <mxCell id="BEKyneoZ9f7303ZgqTsw-40" value="vehiculo = (id_vehiculo,nro_chasis,tipo_motor,clase_vehiculo,atr_esp)" style="rounded=0;whiteSpace=wrap;html=1;fillColor=#ffe6cc;strokeColor=#d79b00;strokeWidth=3;" parent="1" vertex="1">
          <mxGeometry x="1090" y="4820" width="410" height="60" as="geometry" />
        </mxCell>
        <mxCell id="BEKyneoZ9f7303ZgqTsw-47" value="V" style="edgeStyle=orthogonalEdgeStyle;rounded=0;orthogonalLoop=1;jettySize=auto;html=1;strokeWidth=3;" parent="1" source="BEKyneoZ9f7303ZgqTsw-44" target="BEKyneoZ9f7303ZgqTsw-46" edge="1">
          <mxGeometry relative="1" as="geometry">
            <Array as="points">
              <mxPoint x="655" y="10630" />
            </Array>
          </mxGeometry>
        </mxCell>
        <mxCell id="BEKyneoZ9f7303ZgqTsw-49" value="F" style="edgeStyle=orthogonalEdgeStyle;rounded=0;orthogonalLoop=1;jettySize=auto;html=1;strokeWidth=3;" parent="1" source="BEKyneoZ9f7303ZgqTsw-44" edge="1">
          <mxGeometry relative="1" as="geometry">
            <mxPoint x="90" y="10820" as="targetPoint" />
          </mxGeometry>
        </mxCell>
        <mxCell id="BEKyneoZ9f7303ZgqTsw-44" value="oficina = bariloche" style="rhombus;whiteSpace=wrap;html=1;fillColor=#fff2cc;strokeColor=#d6b656;rounded=0;strokeWidth=3;" parent="1" vertex="1">
          <mxGeometry x="230" y="10590" width="220" height="80" as="geometry" />
        </mxCell>
        <mxCell id="BEKyneoZ9f7303ZgqTsw-48" style="edgeStyle=orthogonalEdgeStyle;rounded=0;orthogonalLoop=1;jettySize=auto;html=1;strokeWidth=3;" parent="1" edge="1">
          <mxGeometry relative="1" as="geometry">
            <mxPoint x="652.4999999999995" y="10819.999999999998" as="targetPoint" />
            <mxPoint x="652" y="10780" as="sourcePoint" />
          </mxGeometry>
        </mxCell>
        <mxCell id="BEKyneoZ9f7303ZgqTsw-56" value="" style="edgeStyle=orthogonalEdgeStyle;rounded=0;orthogonalLoop=1;jettySize=auto;html=1;strokeWidth=3;" parent="1" source="BEKyneoZ9f7303ZgqTsw-46" target="BEKyneoZ9f7303ZgqTsw-55" edge="1">
          <mxGeometry relative="1" as="geometry" />
        </mxCell>
        <mxCell id="BEKyneoZ9f7303ZgqTsw-46" value="seguro_tierra_nieve â importe_tierra_nieve" style="whiteSpace=wrap;html=1;fillColor=#ffe6cc;strokeColor=#d79b00;rounded=0;strokeWidth=3;" parent="1" vertex="1">
          <mxGeometry x="500" y="10660" width="310" height="60" as="geometry" />
        </mxCell>
        <mxCell id="BEKyneoZ9f7303ZgqTsw-50" value="" style="endArrow=none;html=1;rounded=0;strokeWidth=3;" parent="1" edge="1">
          <mxGeometry width="50" height="50" relative="1" as="geometry">
            <mxPoint x="90" y="10820" as="sourcePoint" />
            <mxPoint x="650" y="10820" as="targetPoint" />
          </mxGeometry>
        </mxCell>
        <mxCell id="BEKyneoZ9f7303ZgqTsw-60" value="" style="edgeStyle=orthogonalEdgeStyle;rounded=0;orthogonalLoop=1;jettySize=auto;html=1;strokeWidth=3;" parent="1" source="BEKyneoZ9f7303ZgqTsw-51" target="BEKyneoZ9f7303ZgqTsw-83" edge="1">
          <mxGeometry relative="1" as="geometry">
            <mxPoint x="340" y="11250" as="targetPoint" />
          </mxGeometry>
        </mxCell>
        <mxCell id="BEKyneoZ9f7303ZgqTsw-51" value="factura â (num_factura,datos_basicos,id_vehiculo,importe_tarifa,tipo_tarifa,recargo_temp,recargo_zona,descuento_vip)" style="whiteSpace=wrap;html=1;fillColor=#ffe6cc;strokeColor=#d79b00;rounded=0;strokeWidth=3;" parent="1" vertex="1">
          <mxGeometry x="16" y="11110" width="650" height="60" as="geometry" />
        </mxCell>
        <mxCell id="BEKyneoZ9f7303ZgqTsw-53" value="seguros â&amp;nbsp;[seguro_CNS]" style="whiteSpace=wrap;html=1;fillColor=#ffe6cc;strokeColor=#d79b00;rounded=0;strokeWidth=3;" parent="1" vertex="1">
          <mxGeometry x="200" y="10430" width="280" height="50" as="geometry" />
        </mxCell>
        <mxCell id="BEKyneoZ9f7303ZgqTsw-55" value="seguros â [seguro_CNS,seguro_tierra_nieve]" style="whiteSpace=wrap;html=1;fillColor=#ffe6cc;strokeColor=#d79b00;rounded=0;strokeWidth=3;" parent="1" vertex="1">
          <mxGeometry x="500" y="10740" width="310" height="60" as="geometry" />
        </mxCell>
        <mxCell id="BEKyneoZ9f7303ZgqTsw-65" style="edgeStyle=orthogonalEdgeStyle;rounded=0;orthogonalLoop=1;jettySize=auto;html=1;exitX=0.5;exitY=1;exitDx=0;exitDy=0;entryX=0.5;entryY=0;entryDx=0;entryDy=0;strokeWidth=3;" parent="1" source="BEKyneoZ9f7303ZgqTsw-64" target="MG_LVtpam4iUi1cTAw5i-177" edge="1">
          <mxGeometry relative="1" as="geometry" />
        </mxCell>
        <mxCell id="BEKyneoZ9f7303ZgqTsw-64" value="recargo_temp â&amp;nbsp; 1.5" style="rounded=0;whiteSpace=wrap;html=1;fillColor=#ffe6cc;strokeColor=#d79b00;strokeWidth=3;" parent="1" vertex="1">
          <mxGeometry x="1385" y="8020" width="120" height="60" as="geometry" />
        </mxCell>
        <mxCell id="BEKyneoZ9f7303ZgqTsw-67" style="edgeStyle=orthogonalEdgeStyle;rounded=0;orthogonalLoop=1;jettySize=auto;html=1;entryX=0.5;entryY=0;entryDx=0;entryDy=0;strokeWidth=3;" parent="1" source="BEKyneoZ9f7303ZgqTsw-66" target="MG_LVtpam4iUi1cTAw5i-188" edge="1">
          <mxGeometry relative="1" as="geometry" />
        </mxCell>
        <mxCell id="BEKyneoZ9f7303ZgqTsw-66" value="recargo_zona â&amp;nbsp; 1.3" style="rounded=0;whiteSpace=wrap;html=1;fillColor=#ffe6cc;strokeColor=#d79b00;strokeWidth=3;" parent="1" vertex="1">
          <mxGeometry x="1350" y="8790" width="120" height="60" as="geometry" />
        </mxCell>
        <mxCell id="BEKyneoZ9f7303ZgqTsw-69" style="edgeStyle=orthogonalEdgeStyle;rounded=0;orthogonalLoop=1;jettySize=auto;html=1;exitX=0.5;exitY=1;exitDx=0;exitDy=0;entryX=0.5;entryY=0;entryDx=0;entryDy=0;strokeWidth=3;" parent="1" source="BEKyneoZ9f7303ZgqTsw-68" target="MG_LVtpam4iUi1cTAw5i-192" edge="1">
          <mxGeometry relative="1" as="geometry" />
        </mxCell>
        <mxCell id="BEKyneoZ9f7303ZgqTsw-68" value="recargo_zona â&amp;nbsp; 1.4" style="rounded=0;whiteSpace=wrap;html=1;fillColor=#ffe6cc;strokeColor=#d79b00;strokeWidth=3;" parent="1" vertex="1">
          <mxGeometry x="980" y="9120" width="120" height="60" as="geometry" />
        </mxCell>
        <mxCell id="BEKyneoZ9f7303ZgqTsw-70" value="recargo_zona â&amp;nbsp; 1.4" style="rounded=0;whiteSpace=wrap;html=1;fillColor=#ffe6cc;strokeColor=#d79b00;strokeWidth=3;" parent="1" vertex="1">
          <mxGeometry x="470" y="9220" width="120" height="60" as="geometry" />
        </mxCell>
        <mxCell id="BEKyneoZ9f7303ZgqTsw-73" style="edgeStyle=orthogonalEdgeStyle;rounded=0;orthogonalLoop=1;jettySize=auto;html=1;entryX=0.5;entryY=0;entryDx=0;entryDy=0;strokeWidth=3;" parent="1" source="BEKyneoZ9f7303ZgqTsw-72" target="MG_LVtpam4iUi1cTAw5i-185" edge="1">
          <mxGeometry relative="1" as="geometry" />
        </mxCell>
        <mxCell id="BEKyneoZ9f7303ZgqTsw-72" value="recargo_zona â 1" style="rounded=0;whiteSpace=wrap;html=1;fillColor=#ffe6cc;strokeColor=#d79b00;strokeWidth=3;" parent="1" vertex="1">
          <mxGeometry x="1119" y="8350" width="120" height="60" as="geometry" />
        </mxCell>
        <mxCell id="BEKyneoZ9f7303ZgqTsw-75" style="edgeStyle=orthogonalEdgeStyle;rounded=0;orthogonalLoop=1;jettySize=auto;html=1;exitX=0.5;exitY=1;exitDx=0;exitDy=0;entryX=0.5;entryY=0;entryDx=0;entryDy=0;strokeWidth=3;" parent="1" source="BEKyneoZ9f7303ZgqTsw-74" target="MG_LVtpam4iUi1cTAw5i-172" edge="1">
          <mxGeometry relative="1" as="geometry" />
        </mxCell>
        <mxCell id="BEKyneoZ9f7303ZgqTsw-74" value="recargo_temp â 1" style="rounded=0;whiteSpace=wrap;html=1;fillColor=#ffe6cc;strokeColor=#d79b00;strokeWidth=3;" parent="1" vertex="1">
          <mxGeometry x="1120" y="7670" width="120" height="60" as="geometry" />
        </mxCell>
        <mxCell id="BEKyneoZ9f7303ZgqTsw-82" style="edgeStyle=orthogonalEdgeStyle;rounded=0;orthogonalLoop=1;jettySize=auto;html=1;exitX=0.5;exitY=1;exitDx=0;exitDy=0;entryX=0.5;entryY=0;entryDx=0;entryDy=0;strokeWidth=3;" parent="1" source="BEKyneoZ9f7303ZgqTsw-80" target="BEKyneoZ9f7303ZgqTsw-9" edge="1">
          <mxGeometry relative="1" as="geometry" />
        </mxCell>
        <mxCell id="BEKyneoZ9f7303ZgqTsw-80" value="descuento_vip â&amp;nbsp; 0" style="rounded=0;whiteSpace=wrap;html=1;fillColor=#ffe6cc;strokeColor=#d79b00;strokeWidth=3;" parent="1" vertex="1">
          <mxGeometry x="1020" y="3000" width="120" height="60" as="geometry" />
        </mxCell>
        <mxCell id="BEKyneoZ9f7303ZgqTsw-81" style="edgeStyle=orthogonalEdgeStyle;rounded=0;orthogonalLoop=1;jettySize=auto;html=1;exitX=0.5;exitY=1;exitDx=0;exitDy=0;entryX=0.5;entryY=0;entryDx=0;entryDy=0;strokeWidth=3;" parent="1" source="BEKyneoZ9f7303ZgqTsw-24" target="BEKyneoZ9f7303ZgqTsw-80" edge="1">
          <mxGeometry relative="1" as="geometry" />
        </mxCell>
        <mxCell id="BEKyneoZ9f7303ZgqTsw-85" value="" style="edgeStyle=orthogonalEdgeStyle;rounded=0;orthogonalLoop=1;jettySize=auto;html=1;strokeWidth=3;" parent="1" source="BEKyneoZ9f7303ZgqTsw-83" target="BEKyneoZ9f7303ZgqTsw-84" edge="1">
          <mxGeometry relative="1" as="geometry" />
        </mxCell>
        <mxCell id="BEKyneoZ9f7303ZgqTsw-83" value="fecha_devol â dd/mm/yyyy" style="rounded=0;whiteSpace=wrap;html=1;fillColor=#ffe6cc;strokeColor=#d79b00;strokeWidth=3;" parent="1" vertex="1">
          <mxGeometry x="240" y="11220" width="200" height="60" as="geometry" />
        </mxCell>
        <mxCell id="BEKyneoZ9f7303ZgqTsw-87" value="" style="edgeStyle=orthogonalEdgeStyle;rounded=0;orthogonalLoop=1;jettySize=auto;html=1;strokeWidth=3;" parent="1" source="BEKyneoZ9f7303ZgqTsw-84" target="BEKyneoZ9f7303ZgqTsw-86" edge="1">
          <mxGeometry relative="1" as="geometry" />
        </mxCell>
        <mxCell id="BEKyneoZ9f7303ZgqTsw-84" value="lista_devol.agregar ((id_vehiculo,fecha)_devol)" style="whiteSpace=wrap;html=1;fillColor=#ffe6cc;strokeColor=#d79b00;rounded=0;strokeWidth=3;" parent="1" vertex="1">
          <mxGeometry x="200" y="11330" width="280" height="60" as="geometry" />
        </mxCell>
        <mxCell id="BEKyneoZ9f7303ZgqTsw-89" value="" style="edgeStyle=orthogonalEdgeStyle;rounded=0;orthogonalLoop=1;jettySize=auto;html=1;strokeWidth=3;" parent="1" source="BEKyneoZ9f7303ZgqTsw-86" target="BEKyneoZ9f7303ZgqTsw-88" edge="1">
          <mxGeometry relative="1" as="geometry" />
        </mxCell>
        <mxCell id="BEKyneoZ9f7303ZgqTsw-86" value="lista_facturas.agregar (factura)" style="whiteSpace=wrap;html=1;fillColor=#ffe6cc;strokeColor=#d79b00;rounded=0;strokeWidth=3;" parent="1" vertex="1">
          <mxGeometry x="240" y="11430" width="200" height="60" as="geometry" />
        </mxCell>
        <mxCell id="BEKyneoZ9f7303ZgqTsw-95" value="" style="edgeStyle=orthogonalEdgeStyle;rounded=0;orthogonalLoop=1;jettySize=auto;html=1;strokeWidth=3;" parent="1" source="BEKyneoZ9f7303ZgqTsw-88" target="BEKyneoZ9f7303ZgqTsw-94" edge="1">
          <mxGeometry relative="1" as="geometry" />
        </mxCell>
        <mxCell id="BEKyneoZ9f7303ZgqTsw-88" value="lista_cliente_facturas.agregar (factura)" style="whiteSpace=wrap;html=1;fillColor=#ffe6cc;strokeColor=#d79b00;rounded=0;strokeWidth=3;" parent="1" vertex="1">
          <mxGeometry x="210" y="11518" width="260" height="60" as="geometry" />
        </mxCell>
        <mxCell id="BEKyneoZ9f7303ZgqTsw-101" value="V" style="edgeStyle=orthogonalEdgeStyle;rounded=0;orthogonalLoop=1;jettySize=auto;html=1;strokeWidth=3;" parent="1" source="BEKyneoZ9f7303ZgqTsw-92" target="BEKyneoZ9f7303ZgqTsw-121" edge="1">
          <mxGeometry relative="1" as="geometry">
            <mxPoint x="400" y="12605" as="targetPoint" />
          </mxGeometry>
        </mxCell>
        <mxCell id="BEKyneoZ9f7303ZgqTsw-102" value="F" style="edgeStyle=orthogonalEdgeStyle;rounded=0;orthogonalLoop=1;jettySize=auto;html=1;entryX=0.5;entryY=0;entryDx=0;entryDy=0;strokeWidth=3;" parent="1" source="BEKyneoZ9f7303ZgqTsw-92" target="BEKyneoZ9f7303ZgqTsw-122" edge="1">
          <mxGeometry relative="1" as="geometry">
            <mxPoint x="-515" y="12575" as="targetPoint" />
          </mxGeometry>
        </mxCell>
        <mxCell id="BEKyneoZ9f7303ZgqTsw-92" value="saldo_pendiente = 0" style="rhombus;whiteSpace=wrap;html=1;fillColor=#fff2cc;strokeColor=#d6b656;strokeWidth=3;" parent="1" vertex="1">
          <mxGeometry x="-210" y="12290" width="280" height="80" as="geometry" />
        </mxCell>
        <mxCell id="BEKyneoZ9f7303ZgqTsw-99" style="edgeStyle=orthogonalEdgeStyle;rounded=0;orthogonalLoop=1;jettySize=auto;html=1;exitX=0.5;exitY=1;exitDx=0;exitDy=0;entryX=0.5;entryY=0;entryDx=0;entryDy=0;strokeWidth=3;" parent="1" source="BEKyneoZ9f7303ZgqTsw-94" target="BEKyneoZ9f7303ZgqTsw-98" edge="1">
          <mxGeometry relative="1" as="geometry" />
        </mxCell>
        <mxCell id="BEKyneoZ9f7303ZgqTsw-94" value="saldo_pendiente â importe_tarifa" style="whiteSpace=wrap;html=1;fillColor=#ffe6cc;strokeColor=#d79b00;rounded=0;strokeWidth=3;" parent="1" vertex="1">
          <mxGeometry x="241" y="11640" width="200" height="60" as="geometry" />
        </mxCell>
        <mxCell id="BEKyneoZ9f7303ZgqTsw-106" value="" style="edgeStyle=orthogonalEdgeStyle;rounded=0;orthogonalLoop=1;jettySize=auto;html=1;strokeWidth=3;" parent="1" source="BEKyneoZ9f7303ZgqTsw-98" target="BEKyneoZ9f7303ZgqTsw-105" edge="1">
          <mxGeometry relative="1" as="geometry" />
        </mxCell>
        <mxCell id="BEKyneoZ9f7303ZgqTsw-98" value="importe_abonado" style="shape=parallelogram;perimeter=parallelogramPerimeter;whiteSpace=wrap;html=1;fixedSize=1;fillColor=#d5e8d4;strokeColor=#82b366;strokeWidth=3;" parent="1" vertex="1">
          <mxGeometry x="251" y="11790" width="180" height="60" as="geometry" />
        </mxCell>
        <mxCell id="BEKyneoZ9f7303ZgqTsw-107" value="V" style="edgeStyle=orthogonalEdgeStyle;rounded=0;orthogonalLoop=1;jettySize=auto;html=1;strokeWidth=3;" parent="1" source="BEKyneoZ9f7303ZgqTsw-105" target="BEKyneoZ9f7303ZgqTsw-108" edge="1">
          <mxGeometry relative="1" as="geometry">
            <mxPoint x="680.0000000000005" y="11960.000000000002" as="targetPoint" />
          </mxGeometry>
        </mxCell>
        <mxCell id="BEKyneoZ9f7303ZgqTsw-113" value="F" style="edgeStyle=orthogonalEdgeStyle;rounded=0;orthogonalLoop=1;jettySize=auto;html=1;exitX=0;exitY=0.5;exitDx=0;exitDy=0;entryX=0.5;entryY=0;entryDx=0;entryDy=0;strokeWidth=3;" parent="1" source="BEKyneoZ9f7303ZgqTsw-105" target="BEKyneoZ9f7303ZgqTsw-116" edge="1">
          <mxGeometry relative="1" as="geometry">
            <mxPoint x="-70" y="11930" as="targetPoint" />
          </mxGeometry>
        </mxCell>
        <mxCell id="BEKyneoZ9f7303ZgqTsw-105" value="importe_abonado &amp;gt; saldo_pendiente" style="rhombus;whiteSpace=wrap;html=1;fillColor=#fff2cc;strokeColor=#d6b656;strokeWidth=3;" parent="1" vertex="1">
          <mxGeometry x="225" y="11890" width="230" height="80" as="geometry" />
        </mxCell>
        <mxCell id="BEKyneoZ9f7303ZgqTsw-109" style="edgeStyle=orthogonalEdgeStyle;rounded=0;orthogonalLoop=1;jettySize=auto;html=1;exitX=0.5;exitY=0.831;exitDx=0;exitDy=0;exitPerimeter=0;strokeWidth=3;" parent="1" source="BEKyneoZ9f7303ZgqTsw-108" edge="1">
          <mxGeometry relative="1" as="geometry">
            <mxPoint x="580" y="12149.999999999998" as="targetPoint" />
          </mxGeometry>
        </mxCell>
        <mxCell id="BEKyneoZ9f7303ZgqTsw-108" value="&quot;&quot;No puede pagar mÃ¡s del saldo debido.&quot;" style="shape=document;whiteSpace=wrap;html=1;boundedLbl=1;fillColor=#e1d5e7;strokeColor=#9673a6;strokeWidth=3;" parent="1" vertex="1">
          <mxGeometry x="520" y="11992.000000000002" width="120" height="80" as="geometry" />
        </mxCell>
        <mxCell id="BEKyneoZ9f7303ZgqTsw-110" value="" style="endArrow=classic;html=1;rounded=0;strokeWidth=3;" parent="1" edge="1">
          <mxGeometry width="50" height="50" relative="1" as="geometry">
            <mxPoint x="580" y="12150" as="sourcePoint" />
            <mxPoint x="750" y="12150" as="targetPoint" />
          </mxGeometry>
        </mxCell>
        <mxCell id="BEKyneoZ9f7303ZgqTsw-111" value="" style="endArrow=classic;html=1;rounded=0;strokeWidth=3;" parent="1" edge="1">
          <mxGeometry width="50" height="50" relative="1" as="geometry">
            <mxPoint x="750" y="12150" as="sourcePoint" />
            <mxPoint x="750" y="11750" as="targetPoint" />
          </mxGeometry>
        </mxCell>
        <mxCell id="BEKyneoZ9f7303ZgqTsw-112" value="" style="endArrow=classic;html=1;rounded=0;strokeWidth=3;" parent="1" edge="1">
          <mxGeometry width="50" height="50" relative="1" as="geometry">
            <mxPoint x="750" y="11750" as="sourcePoint" />
            <mxPoint x="340" y="11750" as="targetPoint" />
          </mxGeometry>
        </mxCell>
        <mxCell id="BEKyneoZ9f7303ZgqTsw-117" style="edgeStyle=orthogonalEdgeStyle;rounded=0;orthogonalLoop=1;jettySize=auto;html=1;entryX=0.5;entryY=0;entryDx=0;entryDy=0;exitX=0.5;exitY=1;exitDx=0;exitDy=0;strokeWidth=3;" parent="1" source="BEKyneoZ9f7303ZgqTsw-120" target="BEKyneoZ9f7303ZgqTsw-92" edge="1">
          <mxGeometry relative="1" as="geometry">
            <mxPoint x="-70" y="12260" as="sourcePoint" />
          </mxGeometry>
        </mxCell>
        <mxCell id="BEKyneoZ9f7303ZgqTsw-119" style="edgeStyle=orthogonalEdgeStyle;rounded=0;orthogonalLoop=1;jettySize=auto;html=1;exitX=0.5;exitY=1;exitDx=0;exitDy=0;entryX=0.5;entryY=0;entryDx=0;entryDy=0;strokeWidth=3;" parent="1" source="BEKyneoZ9f7303ZgqTsw-116" target="BEKyneoZ9f7303ZgqTsw-120" edge="1">
          <mxGeometry relative="1" as="geometry">
            <mxPoint x="-69.4285714285711" y="12150" as="targetPoint" />
          </mxGeometry>
        </mxCell>
        <mxCell id="BEKyneoZ9f7303ZgqTsw-116" value="saldo_pendiente â saldo_pendiente - importe_abonado" style="rounded=0;whiteSpace=wrap;html=1;fillColor=#ffe6cc;strokeColor=#d79b00;strokeWidth=3;" parent="1" vertex="1">
          <mxGeometry x="-225" y="12040" width="310" height="60" as="geometry" />
        </mxCell>
        <mxCell id="BEKyneoZ9f7303ZgqTsw-120" value="pago â (dni, fecha_actual,num_factura, importe_abonado, saldo_pendiente)" style="rounded=0;whiteSpace=wrap;html=1;fillColor=#ffe6cc;strokeColor=#d79b00;strokeWidth=3;" parent="1" vertex="1">
          <mxGeometry x="-280" y="12160" width="420" height="60" as="geometry" />
        </mxCell>
        <mxCell id="BEKyneoZ9f7303ZgqTsw-124" style="edgeStyle=orthogonalEdgeStyle;rounded=0;orthogonalLoop=1;jettySize=auto;html=1;exitX=0.496;exitY=0.8;exitDx=0;exitDy=0;exitPerimeter=0;strokeWidth=3;" parent="1" source="BEKyneoZ9f7303ZgqTsw-121" edge="1">
          <mxGeometry relative="1" as="geometry">
            <mxPoint x="410" y="12860" as="targetPoint" />
          </mxGeometry>
        </mxCell>
        <mxCell id="BEKyneoZ9f7303ZgqTsw-121" value="&quot;&quot;Gracias por su pago. No registra deuda.&quot;" style="shape=document;whiteSpace=wrap;html=1;boundedLbl=1;fillColor=#e1d5e7;strokeColor=#9673a6;strokeWidth=3;" parent="1" vertex="1">
          <mxGeometry x="340" y="12565" width="140" height="80" as="geometry" />
        </mxCell>
        <mxCell id="BEKyneoZ9f7303ZgqTsw-123" style="edgeStyle=orthogonalEdgeStyle;rounded=0;orthogonalLoop=1;jettySize=auto;html=1;exitX=0.498;exitY=0.813;exitDx=0;exitDy=0;exitPerimeter=0;strokeWidth=3;" parent="1" source="BEKyneoZ9f7303ZgqTsw-122" edge="1">
          <mxGeometry relative="1" as="geometry">
            <mxPoint x="-492" y="12860" as="targetPoint" />
          </mxGeometry>
        </mxCell>
        <mxCell id="BEKyneoZ9f7303ZgqTsw-122" value="&quot;&quot;Gracias por su pago. Su deuda actual es de $&quot; saldo_pendiente&amp;nbsp;" style="shape=document;whiteSpace=wrap;html=1;boundedLbl=1;fillColor=#e1d5e7;strokeColor=#9673a6;strokeWidth=3;" parent="1" vertex="1">
          <mxGeometry x="-584" y="12580" width="184" height="80" as="geometry" />
        </mxCell>
        <mxCell id="BEKyneoZ9f7303ZgqTsw-125" value="" style="endArrow=none;html=1;rounded=0;strokeWidth=3;" parent="1" edge="1">
          <mxGeometry width="50" height="50" relative="1" as="geometry">
            <mxPoint x="-490" y="12860" as="sourcePoint" />
            <mxPoint x="410" y="12860" as="targetPoint" />
          </mxGeometry>
        </mxCell>
        <mxCell id="BEKyneoZ9f7303ZgqTsw-126" value="" style="endArrow=classic;html=1;rounded=0;strokeWidth=3;" parent="1" edge="1">
          <mxGeometry width="50" height="50" relative="1" as="geometry">
            <mxPoint x="-70" y="12860" as="sourcePoint" />
            <mxPoint x="-70" y="13240" as="targetPoint" />
          </mxGeometry>
        </mxCell>
        <mxCell id="BEKyneoZ9f7303ZgqTsw-129" style="edgeStyle=orthogonalEdgeStyle;rounded=0;orthogonalLoop=1;jettySize=auto;html=1;exitX=0.501;exitY=0.821;exitDx=0;exitDy=0;exitPerimeter=0;strokeWidth=3;" parent="1" source="BEKyneoZ9f7303ZgqTsw-128" edge="1">
          <mxGeometry relative="1" as="geometry">
            <mxPoint x="-750" y="2960" as="targetPoint" />
          </mxGeometry>
        </mxCell>
        <mxCell id="BEKyneoZ9f7303ZgqTsw-128" value="&quot;No cumple con la edad mÃ­nima.&quot;" style="shape=document;whiteSpace=wrap;html=1;boundedLbl=1;strokeColor=#9673a6;align=center;verticalAlign=middle;fontFamily=Helvetica;fontSize=12;fillColor=#e1d5e7;strokeWidth=3;" parent="1" vertex="1">
          <mxGeometry x="-810" y="1680" width="120" height="80" as="geometry" />
        </mxCell>
        <mxCell id="BEKyneoZ9f7303ZgqTsw-132" value="" style="endArrow=none;html=1;rounded=0;strokeWidth=3;" parent="1" edge="1">
          <mxGeometry width="50" height="50" relative="1" as="geometry">
            <mxPoint x="-820" y="13240" as="sourcePoint" />
            <mxPoint x="-70" y="13240" as="targetPoint" />
          </mxGeometry>
        </mxCell>
        <mxCell id="BEKyneoZ9f7303ZgqTsw-133" value="" style="endArrow=classic;html=1;rounded=0;entryX=0.5;entryY=0;entryDx=0;entryDy=0;strokeWidth=3;" parent="1" target="MG_LVtpam4iUi1cTAw5i-67" edge="1">
          <mxGeometry width="50" height="50" relative="1" as="geometry">
            <mxPoint x="-584" y="13240" as="sourcePoint" />
            <mxPoint x="-1240" y="12770" as="targetPoint" />
          </mxGeometry>
        </mxCell>
        <mxCell id="BEKyneoZ9f7303ZgqTsw-152" value="" style="edgeStyle=orthogonalEdgeStyle;rounded=0;orthogonalLoop=1;jettySize=auto;html=1;strokeWidth=3;" parent="1" source="BEKyneoZ9f7303ZgqTsw-134" target="MG_LVtpam4iUi1cTAw5i-37" edge="1">
          <mxGeometry relative="1" as="geometry" />
        </mxCell>
        <mxCell id="BEKyneoZ9f7303ZgqTsw-134" value="permiso_o_lic â&amp;nbsp; Falso" style="whiteSpace=wrap;html=1;fillColor=#ffe6cc;strokeColor=#d79b00;strokeWidth=3;" parent="1" vertex="1">
          <mxGeometry x="1015" y="1670" width="130" height="60" as="geometry" />
        </mxCell>
        <mxCell id="BEKyneoZ9f7303ZgqTsw-144" style="edgeStyle=orthogonalEdgeStyle;rounded=0;orthogonalLoop=1;jettySize=auto;html=1;exitX=0.5;exitY=1;exitDx=0;exitDy=0;strokeWidth=3;" parent="1" source="BEKyneoZ9f7303ZgqTsw-137" edge="1">
          <mxGeometry relative="1" as="geometry">
            <mxPoint x="980.666666666667" y="2499.9999999999995" as="targetPoint" />
          </mxGeometry>
        </mxCell>
        <mxCell id="BEKyneoZ9f7303ZgqTsw-137" value="permiso_o_lic â&amp;nbsp; Verdadero" style="whiteSpace=wrap;html=1;fillColor=#ffe6cc;strokeColor=#d79b00;strokeWidth=3;" parent="1" vertex="1">
          <mxGeometry x="900" y="2370" width="160" height="60" as="geometry" />
        </mxCell>
        <mxCell id="BEKyneoZ9f7303ZgqTsw-142" style="edgeStyle=orthogonalEdgeStyle;rounded=0;orthogonalLoop=1;jettySize=auto;html=1;exitX=0.5;exitY=1;exitDx=0;exitDy=0;strokeWidth=3;" parent="1" source="BEKyneoZ9f7303ZgqTsw-138" edge="1">
          <mxGeometry relative="1" as="geometry">
            <mxPoint x="1415.666666666667" y="2509.9999999999995" as="targetPoint" />
            <Array as="points">
              <mxPoint x="1415" y="2490" />
              <mxPoint x="1416" y="2490" />
            </Array>
          </mxGeometry>
        </mxCell>
        <mxCell id="BEKyneoZ9f7303ZgqTsw-138" value="permiso_o_lic â&amp;nbsp; Verdadero" style="whiteSpace=wrap;html=1;fillColor=#ffe6cc;strokeColor=#d79b00;strokeWidth=3;" parent="1" vertex="1">
          <mxGeometry x="1332.5" y="2410" width="155" height="60" as="geometry" />
        </mxCell>
        <mxCell id="BEKyneoZ9f7303ZgqTsw-145" value="" style="endArrow=none;html=1;rounded=0;strokeWidth=3;" parent="1" edge="1">
          <mxGeometry width="50" height="50" relative="1" as="geometry">
            <mxPoint x="670" y="2500" as="sourcePoint" />
            <mxPoint x="980" y="2500" as="targetPoint" />
          </mxGeometry>
        </mxCell>
        <mxCell id="BEKyneoZ9f7303ZgqTsw-146" value="" style="endArrow=none;html=1;rounded=0;strokeWidth=3;" parent="1" edge="1">
          <mxGeometry width="50" height="50" relative="1" as="geometry">
            <mxPoint x="1120" y="2510" as="sourcePoint" />
            <mxPoint x="1415" y="2510" as="targetPoint" />
          </mxGeometry>
        </mxCell>
        <mxCell id="BEKyneoZ9f7303ZgqTsw-147" value="" style="endArrow=classic;html=1;rounded=0;strokeWidth=3;" parent="1" edge="1">
          <mxGeometry width="50" height="50" relative="1" as="geometry">
            <mxPoint x="828.5699999999999" y="2500" as="sourcePoint" />
            <mxPoint x="828.5699999999999" y="2600" as="targetPoint" />
          </mxGeometry>
        </mxCell>
        <mxCell id="BEKyneoZ9f7303ZgqTsw-148" value="" style="endArrow=classic;html=1;rounded=0;strokeWidth=3;" parent="1" edge="1">
          <mxGeometry width="50" height="50" relative="1" as="geometry">
            <mxPoint x="1240" y="2510" as="sourcePoint" />
            <mxPoint x="1240" y="2600" as="targetPoint" />
          </mxGeometry>
        </mxCell>
        <mxCell id="BEKyneoZ9f7303ZgqTsw-149" value="" style="endArrow=none;html=1;rounded=0;strokeWidth=3;" parent="1" edge="1">
          <mxGeometry width="50" height="50" relative="1" as="geometry">
            <mxPoint x="830" y="2600" as="sourcePoint" />
            <mxPoint x="1240" y="2600" as="targetPoint" />
          </mxGeometry>
        </mxCell>
        <mxCell id="BEKyneoZ9f7303ZgqTsw-150" value="" style="endArrow=classic;html=1;rounded=0;strokeWidth=3;" parent="1" target="BEKyneoZ9f7303ZgqTsw-151" edge="1">
          <mxGeometry width="50" height="50" relative="1" as="geometry">
            <mxPoint x="1079" y="2600" as="sourcePoint" />
            <mxPoint x="1079" y="2710" as="targetPoint" />
          </mxGeometry>
        </mxCell>
        <mxCell id="BEKyneoZ9f7303ZgqTsw-153" value="F" style="edgeStyle=orthogonalEdgeStyle;rounded=0;orthogonalLoop=1;jettySize=auto;html=1;strokeWidth=3;" parent="1" source="BEKyneoZ9f7303ZgqTsw-151" target="BEKyneoZ9f7303ZgqTsw-154" edge="1">
          <mxGeometry relative="1" as="geometry">
            <mxPoint x="-440" y="2810" as="targetPoint" />
          </mxGeometry>
        </mxCell>
        <mxCell id="BEKyneoZ9f7303ZgqTsw-151" value="permiso_o_lic = verdadero" style="rhombus;whiteSpace=wrap;html=1;fillColor=#fff2cc;strokeColor=#d6b656;strokeWidth=3;" parent="1" vertex="1">
          <mxGeometry x="990" y="2670" width="180" height="80" as="geometry" />
        </mxCell>
        <mxCell id="BEKyneoZ9f7303ZgqTsw-162" style="edgeStyle=orthogonalEdgeStyle;rounded=0;orthogonalLoop=1;jettySize=auto;html=1;exitX=0.502;exitY=0.837;exitDx=0;exitDy=0;exitPerimeter=0;strokeWidth=3;" parent="1" source="BEKyneoZ9f7303ZgqTsw-154" edge="1">
          <mxGeometry relative="1" as="geometry">
            <mxPoint x="-440" y="2960" as="targetPoint" />
          </mxGeometry>
        </mxCell>
        <mxCell id="BEKyneoZ9f7303ZgqTsw-154" value="&quot;No cuenta con un permiso o licencia vÃ¡lida.&quot;" style="shape=document;whiteSpace=wrap;html=1;boundedLbl=1;fillColor=#e1d5e7;strokeColor=#9673a6;strokeWidth=3;" parent="1" vertex="1">
          <mxGeometry x="-500" y="2770" width="120" height="80" as="geometry" />
        </mxCell>
        <mxCell id="BEKyneoZ9f7303ZgqTsw-158" style="edgeStyle=orthogonalEdgeStyle;rounded=0;orthogonalLoop=1;jettySize=auto;html=1;exitX=0.505;exitY=0.835;exitDx=0;exitDy=0;exitPerimeter=0;strokeWidth=3;" parent="1" source="BEKyneoZ9f7303ZgqTsw-157" edge="1">
          <mxGeometry relative="1" as="geometry">
            <mxPoint x="-1060" y="2960" as="targetPoint" />
          </mxGeometry>
        </mxCell>
        <mxCell id="BEKyneoZ9f7303ZgqTsw-157" value="&quot;&quot;El ve&#39;hiculo no se encuentra disponible.&quot;" style="shape=document;whiteSpace=wrap;html=1;boundedLbl=1;fillColor=#e1d5e7;strokeColor=#9673a6;strokeWidth=3;" parent="1" vertex="1">
          <mxGeometry x="-1120" y="1690" width="120" height="80" as="geometry" />
        </mxCell>
        <mxCell id="BEKyneoZ9f7303ZgqTsw-160" value="" style="endArrow=none;html=1;rounded=0;strokeWidth=3;" parent="1" edge="1">
          <mxGeometry width="50" height="50" relative="1" as="geometry">
            <mxPoint x="-751.25" y="2950" as="sourcePoint" />
            <mxPoint x="-751.25" y="3070" as="targetPoint" />
          </mxGeometry>
        </mxCell>
        <mxCell id="BEKyneoZ9f7303ZgqTsw-161" value="" style="endArrow=none;html=1;rounded=0;strokeWidth=3;" parent="1" edge="1">
          <mxGeometry width="50" height="50" relative="1" as="geometry">
            <mxPoint x="-820" y="3070" as="sourcePoint" />
            <mxPoint x="-750" y="3070" as="targetPoint" />
          </mxGeometry>
        </mxCell>
        <mxCell id="TMSowg6UPwNqHrCHGSPX-2" style="edgeStyle=orthogonalEdgeStyle;rounded=0;orthogonalLoop=1;jettySize=auto;html=1;exitX=0.5;exitY=1;exitDx=0;exitDy=0;entryX=0.5;entryY=0;entryDx=0;entryDy=0;strokeWidth=3;" edge="1" parent="1" source="TMSowg6UPwNqHrCHGSPX-1" target="BEKyneoZ9f7303ZgqTsw-44">
          <mxGeometry relative="1" as="geometry" />
        </mxCell>
        <mxCell id="TMSowg6UPwNqHrCHGSPX-1" value="seguro_tierra_nieve â 0" style="rounded=0;whiteSpace=wrap;html=1;fillColor=#ffe6cc;strokeColor=#d79b00;strokeWidth=3;" vertex="1" parent="1">
          <mxGeometry x="240" y="10510" width="200" height="60" as="geometry" />
        </mxCell>
        <mxCell id="TMSowg6UPwNqHrCHGSPX-4" value="R1" style="text;html=1;align=center;verticalAlign=middle;whiteSpace=wrap;rounded=0;fontSize=35;" vertex="1" parent="1">
          <mxGeometry x="730" y="2390" width="100" height="60" as="geometry" />
        </mxCell>
        <mxCell id="TMSowg6UPwNqHrCHGSPX-5" value="R2" style="text;html=1;align=center;verticalAlign=middle;whiteSpace=wrap;rounded=0;fontSize=35;" vertex="1" parent="1">
          <mxGeometry x="1210" y="2430" width="100" height="60" as="geometry" />
        </mxCell>
        <mxCell id="TMSowg6UPwNqHrCHGSPX-6" value="R3" style="text;html=1;align=center;verticalAlign=middle;whiteSpace=wrap;rounded=0;fontSize=35;" vertex="1" parent="1">
          <mxGeometry x="1010" y="3370" width="100" height="60" as="geometry" />
        </mxCell>
        <mxCell id="TMSowg6UPwNqHrCHGSPX-8" value="R4" style="text;html=1;align=center;verticalAlign=middle;whiteSpace=wrap;rounded=0;fontSize=35;" vertex="1" parent="1">
          <mxGeometry x="1010" y="4450" width="100" height="60" as="geometry" />
        </mxCell>
        <mxCell id="TMSowg6UPwNqHrCHGSPX-9" value="R5" style="text;html=1;align=center;verticalAlign=middle;whiteSpace=wrap;rounded=0;fontSize=35;" vertex="1" parent="1">
          <mxGeometry x="465" y="5670" width="100" height="60" as="geometry" />
        </mxCell>
        <mxCell id="TMSowg6UPwNqHrCHGSPX-10" value="R6" style="text;html=1;align=center;verticalAlign=middle;whiteSpace=wrap;rounded=0;fontSize=35;" vertex="1" parent="1">
          <mxGeometry x="600" y="6990" width="100" height="60" as="geometry" />
        </mxCell>
        <mxCell id="TMSowg6UPwNqHrCHGSPX-11" value="R7" style="text;html=1;align=center;verticalAlign=middle;whiteSpace=wrap;rounded=0;fontSize=35;" vertex="1" parent="1">
          <mxGeometry x="1145" y="8080" width="100" height="60" as="geometry" />
        </mxCell>
        <mxCell id="TMSowg6UPwNqHrCHGSPX-12" value="R8" style="text;html=1;align=center;verticalAlign=middle;whiteSpace=wrap;rounded=0;fontSize=35;" vertex="1" parent="1">
          <mxGeometry x="270" y="10710" width="100" height="60" as="geometry" />
        </mxCell>
        <mxCell id="TMSowg6UPwNqHrCHGSPX-13" value="R9" style="text;html=1;align=center;verticalAlign=middle;whiteSpace=wrap;rounded=0;fontSize=35;" vertex="1" parent="1">
          <mxGeometry x="600" y="11840" width="100" height="60" as="geometry" />
        </mxCell>
        <mxCell id="TMSowg6UPwNqHrCHGSPX-15" value="R10" style="text;html=1;align=center;verticalAlign=middle;whiteSpace=wrap;rounded=0;fontSize=35;" vertex="1" parent="1">
          <mxGeometry x="-90" y="12590" width="100" height="60" as="geometry" />
        </mxCell>
        <mxCell id="TMSowg6UPwNqHrCHGSPX-16" value="R11" style="text;html=1;align=center;verticalAlign=middle;whiteSpace=wrap;rounded=0;fontSize=35;" vertex="1" parent="1">
          <mxGeometry x="720" y="9280" width="100" height="60" as="geometry" />
        </mxCell>
        <mxCell id="TMSowg6UPwNqHrCHGSPX-18" value="R12" style="text;html=1;align=center;verticalAlign=middle;whiteSpace=wrap;rounded=0;fontSize=35;" vertex="1" parent="1">
          <mxGeometry x="1100" y="9650" width="100" height="60" as="geometry" />
        </mxCell>
        <mxCell id="TMSowg6UPwNqHrCHGSPX-19" value="R13" style="text;html=1;align=center;verticalAlign=middle;whiteSpace=wrap;rounded=0;fontSize=35;" vertex="1" parent="1">
          <mxGeometry x="450" y="9864" width="100" height="60" as="geometry" />
        </mxCell>
        <mxCell id="TMSowg6UPwNqHrCHGSPX-21" value="R14" style="text;html=1;align=center;verticalAlign=middle;whiteSpace=wrap;rounded=0;fontSize=35;" vertex="1" parent="1">
          <mxGeometry x="1105" y="7010" width="100" height="60" as="geometry" />
        </mxCell>
        <mxCell id="TMSowg6UPwNqHrCHGSPX-23" value="R15" style="text;html=1;align=center;verticalAlign=middle;whiteSpace=wrap;rounded=0;fontSize=35;" vertex="1" parent="1">
          <mxGeometry x="800" y="5930" width="100" height="60" as="geometry" />
        </mxCell>
        <mxCell id="TMSowg6UPwNqHrCHGSPX-24" value="R16" style="text;html=1;align=center;verticalAlign=middle;whiteSpace=wrap;rounded=0;fontSize=35;" vertex="1" parent="1">
          <mxGeometry x="1160" y="5780" width="100" height="60" as="geometry" />
        </mxCell>
        <mxCell id="TMSowg6UPwNqHrCHGSPX-25" value="R17" style="text;html=1;align=center;verticalAlign=middle;whiteSpace=wrap;rounded=0;fontSize=35;" vertex="1" parent="1">
          <mxGeometry x="1020" y="2150" width="100" height="60" as="geometry" />
        </mxCell>
        <mxCell id="TMSowg6UPwNqHrCHGSPX-26" value="R18" style="text;html=1;align=center;verticalAlign=middle;whiteSpace=wrap;rounded=0;fontSize=35;" vertex="1" parent="1">
          <mxGeometry x="30" y="1654" width="100" height="60" as="geometry" />
        </mxCell>
        <mxCell id="TMSowg6UPwNqHrCHGSPX-27" value="R19" style="text;html=1;align=center;verticalAlign=middle;whiteSpace=wrap;rounded=0;fontSize=35;" vertex="1" parent="1">
          <mxGeometry x="80" y="8330" width="100" height="60" as="geometry" />
        </mxCell>
        <mxCell id="TMSowg6UPwNqHrCHGSPX-28" value="R20" style="text;html=1;align=center;verticalAlign=middle;whiteSpace=wrap;rounded=0;fontSize=35;" vertex="1" parent="1">
          <mxGeometry x="-210" y="4490" width="100" height="60" as="geometry" />
        </mxCell>
        <mxCell id="TMSowg6UPwNqHrCHGSPX-29" value="R21" style="text;html=1;align=center;verticalAlign=middle;whiteSpace=wrap;rounded=0;fontSize=35;" vertex="1" parent="1">
          <mxGeometry x="-910" y="530" width="100" height="60" as="geometry" />
        </mxCell>
        <mxCell id="TMSowg6UPwNqHrCHGSPX-31" value="R22" style="text;html=1;align=center;verticalAlign=middle;whiteSpace=wrap;rounded=0;fontSize=35;" vertex="1" parent="1">
          <mxGeometry x="-410" y="80" width="100" height="60" as="geometry" />
        </mxCell>
        <mxCell id="TMSowg6UPwNqHrCHGSPX-32" value="&lt;font style=&quot;font-size: 55px;&quot;&gt;V(G) = R = 22&lt;/font&gt;&lt;div&gt;&lt;font style=&quot;font-size: 55px;&quot;&gt;V(G) = P + 1 = 21 + 1 = 22&lt;/font&gt;&lt;/div&gt;&lt;div&gt;&lt;font style=&quot;font-size: 55px;&quot;&gt;V(G) = A - N + 2 = Calcular!&lt;/font&gt;&lt;/div&gt;" style="text;html=1;align=left;verticalAlign=middle;whiteSpace=wrap;rounded=0;" vertex="1" parent="1">
          <mxGeometry x="1040" width="1490" height="570" as="geometry" />
        </mxCell>
      </root>
    </mxGraphModel>
  </diagram>
</mxfile>
